<?xml version="1.0" standalone="no"?>
<!DOCTYPE svg PUBLIC "-//W3C//DTD SVG 1.1//EN" "http://www.w3.org/Graphics/SVG/1.1/DTD/svg11.dtd" >
<svg xmlns="http://www.w3.org/2000/svg" xmlns:xlink="http://www.w3.org/1999/xlink" version="1.1">
<metadata>
Created by FontForge 20170731 at Tue Apr 21 09:52:48 2015
 By Aleksey,,,
Copyright (c) 2015 by Kyle Wayne Benson. All rights reserved.
</metadata>
<defs>
<font id="QualtricsGrotesque-Light" horiz-adv-x="500" >
  <font-face 
    font-family="Qualtrics Grotesque Light"
    font-weight="400"
    font-stretch="normal"
    units-per-em="1000"
    panose-1="2 0 5 3 4 0 0 2 0 4"
    ascent="727"
    descent="-273"
    x-height="510"
    cap-height="700"
    bbox="-138 -290 1304 1017"
    underline-thickness="50"
    underline-position="-150"
    unicode-range="U+000D-E300"
  />
<missing-glyph horiz-adv-x="0" 
 />
    <glyph glyph-name=".notdef" horiz-adv-x="0" 
 />
    <glyph glyph-name=".null" horiz-adv-x="0" 
 />
    <glyph glyph-name=".null" horiz-adv-x="0" 
 />
    <glyph glyph-name="nonmarkingreturn" unicode="&#xd;" 
 />
    <glyph glyph-name="space" unicode=" " horiz-adv-x="237" 
 />
    <glyph glyph-name="exclam" unicode="!" horiz-adv-x="231" 
d="M154 700l-7 -500h-62l-8 500h77zM163 97v-98h-95v98h95z" />
    <glyph glyph-name="quotedbl" unicode="&#x22;" horiz-adv-x="344" 
d="M138 700v-67l-11 -157h-52l-10 157v67h73zM279 700v-67l-11 -157h-52l-10 157v67h73z" />
    <glyph glyph-name="numbersign" unicode="#" horiz-adv-x="738" 
d="M544 455l-60 -195h140v-52h-157l-64 -208h-61l64 208h-172l-64 -208h-61l64 208h-136v52h153l60 195h-137v52h153l60 193h61l-60 -193h172l60 193h61l-60 -193h140v-52h-156zM483 455h-172l-60 -195h172z" />
    <glyph glyph-name="dollar" unicode="$" horiz-adv-x="608" 
d="M565 194q0 -94 -59.5 -147t-169.5 -58v-109h-61v111q-49 4 -91 20t-73.5 44t-50 68.5t-20.5 94.5h69q4 -81 50 -121t116 -48v285q-44 7 -82.5 18t-67 31t-45.5 50.5t-17 77.5q0 90 56.5 139t153.5 56v114h62v-114q102 -8 154.5 -62.5t55.5 -136.5h-65q-1 27 -9.5 51.5
t-26 43.5t-44.5 31.5t-65 16.5v-254q45 -8 86.5 -20t73.5 -34.5t51 -58t19 -89.5zM131 517q0 -29 10 -48t28 -31.5t44.5 -19.5t59.5 -12v243q-66 -7 -104 -41t-38 -91zM336 48q78 5 119 41.5t41 101.5q0 34 -11 57t-32 38t-50.5 24t-66.5 15v-277z" />
    <glyph glyph-name="percent" unicode="%" horiz-adv-x="931" 
d="M203 712q80 0 124 -48.5t44 -137.5t-44 -137.5t-124 -48.5t-124 48.5t-44 137.5t44 137.5t124 48.5zM698 700l-417 -700h-59l417 700h59zM203 669q-54 0 -84.5 -37.5t-30.5 -105.5q0 -69 30.5 -105.5t84.5 -36.5t83.5 36.5t29.5 105.5q0 68 -29.5 105.5t-83.5 37.5z
M729 359q80 0 124 -49t44 -137t-44 -137t-124 -49t-124 49t-44 137t44 137t124 49zM729 316q-54 0 -84.5 -37.5t-30.5 -105.5t30.5 -105.5t84.5 -37.5q53 0 83 37.5t30 105.5t-30 105.5t-83 37.5z" />
    <glyph glyph-name="ampersand" unicode="&#x26;" horiz-adv-x="638" 
d="M550 0l-70 83q-32 -43 -82.5 -68.5t-122.5 -25.5q-54 0 -97.5 14t-74.5 40t-47.5 63t-16.5 82t14.5 77.5t37.5 57t52 43t67 40.5q-29 34 -50.5 71t-21.5 85q0 69 44.5 109.5t116.5 40.5q36 0 65 -11t48.5 -30t30 -45t10.5 -57q0 -51 -28 -86.5t-80 -64.5l-45 -26
l166 -199q12 40 15.5 82t-0.5 83h62q3 -63 -4.5 -118t-27.5 -101l116 -139h-77zM298 659q-44 0 -71 -26t-27 -69q0 -36 18.5 -65.5t44.5 -61.5l50 28q38 22 57.5 47t19.5 58q0 37 -23.5 63t-68.5 26zM274 44q60 0 100 24.5t65 64.5l-192 229l-20 -12q-25 -15 -47 -30
t-38.5 -33.5t-26.5 -42t-10 -54.5q0 -65 44 -105.5t125 -40.5z" />
    <glyph glyph-name="quotesingle" unicode="'" horiz-adv-x="202" 
d="M138 700v-67l-11 -157h-52l-10 157v67h73z" />
    <glyph glyph-name="parenleft" unicode="(" horiz-adv-x="333" 
d="M303 643q-83 -20 -132 -117t-49 -256t49 -244.5t132 -105.5v-57q-53 7 -99 37t-80 81.5t-53.5 124t-19.5 164.5q0 93 19.5 169t53.5 132t80 89.5t99 39.5v-57z" />
    <glyph glyph-name="parenright" unicode=")" horiz-adv-x="333" 
d="M30 700q53 -6 99 -39.5t80 -89.5t53.5 -132t19.5 -169q0 -92 -19.5 -164.5t-53.5 -124t-80 -81.5t-99 -37v57q83 20 132 105.5t49 244.5q0 79 -13 143.5t-36.5 112t-57 77.5t-74.5 40v57z" />
    <glyph glyph-name="asterisk" unicode="*" horiz-adv-x="466" 
d="M272 537l124 -65l-25 -46l-120 78l7 -141h-52l7 139l-117 -76l-26 46l124 65l-124 65l26 46l117 -76l-7 139h52l-7 -141l120 78l25 -46z" />
    <glyph glyph-name="plus" unicode="+" horiz-adv-x="479" 
d="M428 339h-161v-167h-54v167h-162v50h162v167h54v-167h161v-50z" />
    <glyph glyph-name="comma" unicode="," horiz-adv-x="223" 
d="M152 103v-77l-59 -155h-37l15 144v88h81z" />
    <glyph glyph-name="hyphen" unicode="-" horiz-adv-x="439" 
d="M371 312v-59h-302v59h302z" />
    <glyph glyph-name="period" unicode="." horiz-adv-x="233" 
d="M164 99v-98h-95v98h95z" />
    <glyph glyph-name="slash" unicode="/" horiz-adv-x="375" 
d="M345 700l-254 -803h-62l254 803h62z" />
    <glyph glyph-name="zero" unicode="0" horiz-adv-x="608" 
d="M305 718q118 0 181 -90.5t63 -277.5t-63 -277.5t-181 -90.5q-121 0 -183.5 90.5t-62.5 277.5t62.5 277.5t183.5 90.5zM305 660q-85 0 -130.5 -73t-45.5 -237q0 -82 11.5 -140.5t34 -96t55.5 -55.5t75 -18t74.5 18t54.5 55.5t33.5 96t11.5 140.5q0 164 -45 237t-129 73z
" />
    <glyph glyph-name="one" unicode="1" horiz-adv-x="358" 
d="M176 0v607q-14 -29 -43.5 -45t-69.5 -17v50q46 2 78 31t36 74h65l1 -700h-67z" />
    <glyph glyph-name="two" unicode="2" horiz-adv-x="553" 
d="M501 59v-59h-447v45q0 66 27 114t67.5 85t87.5 67t87.5 61t67.5 67t27 85q0 57 -36.5 93t-103.5 36q-40 0 -69 -12.5t-47.5 -34t-26.5 -50.5t-7 -63h-67q0 49 13.5 89t41 68.5t68.5 44t96 15.5q48 0 87 -13.5t66 -38.5t41.5 -60t14.5 -78q0 -58 -26 -100t-65 -75.5
t-85 -62t-86.5 -60.5t-69 -70.5t-31.5 -92.5h375z" />
    <glyph glyph-name="three" unicode="3" horiz-adv-x="571" 
d="M381 369q64 -16 99 -58t35 -120q0 -95 -58 -148.5t-166 -53.5q-51 0 -95 13.5t-76 41t-50.5 71t-19.5 103.5h70q1 -47 13.5 -79.5t34.5 -53t52 -30t66 -9.5q75 0 116.5 39.5t41.5 108.5q0 74 -44.5 107.5t-132.5 33.5h-75v57h75q75 0 114 30t39 93t-37.5 97t-102.5 34
q-72 0 -109 -41t-35 -106h-66q2 91 55 147t157 56q97 0 153.5 -48.5t56.5 -134.5q0 -63 -28.5 -98.5t-82.5 -51.5z" />
    <glyph glyph-name="four" unicode="4" horiz-adv-x="555" 
d="M520 193h-103v-193h-66v193h-321v59l325 448h62v-448h103v-59zM351 252v351l-250 -351h250z" />
    <glyph glyph-name="five" unicode="5" horiz-adv-x="554" 
d="M297 474q45 0 84 -14.5t67.5 -44.5t44.5 -75t16 -106q0 -119 -60.5 -183t-168.5 -64q-97 0 -158 53t-66 156h68q5 -75 45.5 -113.5t108.5 -38.5q77 0 119 48.5t42 139.5q0 94 -41.5 139t-113.5 45q-61 0 -99 -30.5t-56 -84.5l-64 8l28 391h361v-58h-302l-17 -245
q26 37 67 57t95 20z" />
    <glyph glyph-name="six" unicode="6" horiz-adv-x="593" 
d="M330 443q47 0 86 -14.5t67 -43t43.5 -70.5t15.5 -97q0 -60 -18.5 -103t-50 -71.5t-73.5 -42t-90 -13.5q-125 0 -188.5 89t-63.5 269q0 184 68 274.5t189 90.5q99 0 150.5 -54t55.5 -141h-67q-2 27 -10.5 52t-25.5 43.5t-43 29.5t-63 11q-91 0 -138.5 -76.5t-47.5 -248.5
v-16q24 62 76.5 97t127.5 35zM312 46q72 0 115.5 42t43.5 129q0 85 -42.5 129t-108.5 44q-37 0 -68 -13.5t-53.5 -38t-35.5 -58.5t-13 -74q0 -34 11.5 -63.5t32.5 -51t51 -33.5t67 -12z" />
    <glyph glyph-name="seven" unicode="7" horiz-adv-x="463" 
d="M446 640q-47 -44 -87.5 -114t-70 -155.5t-46.5 -180.5t-16 -190h-73q0 89 15 181t44 177t70.5 158.5t93.5 125.5h-350v58h420v-60z" />
    <glyph glyph-name="eight" unicode="8" horiz-adv-x="582" 
d="M402 370q59 -21 91.5 -67t32.5 -115q0 -44 -14 -81t-43.5 -63t-73.5 -40.5t-104 -14.5t-104 14.5t-73.5 40.5t-43.5 63t-14 81q0 69 32 115t92 67q-102 40 -102 155q0 40 14 74t41 59t66.5 39.5t91.5 14.5q51 0 91 -14.5t67 -39.5t41 -59t14 -74q0 -56 -26 -95.5
t-76 -59.5zM291 659q-71 0 -107 -39t-36 -97t36.5 -92.5t106.5 -34.5q69 0 106 34.5t37 92.5t-36 97t-107 39zM290 41q42 0 73 11t51.5 31t30.5 47.5t10 60.5q0 67 -42 108.5t-123 41.5q-83 0 -123.5 -41.5t-40.5 -108.5q0 -65 40.5 -107.5t123.5 -42.5z" />
    <glyph glyph-name="nine" unicode="9" horiz-adv-x="595" 
d="M285 712q58 0 104.5 -22t79 -66.5t50 -111.5t17.5 -158q0 -179 -59.5 -272t-184.5 -93q-53 0 -93 16t-67.5 43t-42 63t-15.5 77h68q0 -26 8.5 -51.5t26.5 -45.5t46 -32.5t68 -12.5q95 0 135.5 77t40.5 249q-20 -63 -70.5 -94.5t-122.5 -31.5q-50 0 -91 15.5t-70 44.5
t-45 72t-16 97q0 62 19 106.5t51 73.5t74 43t89 14zM282 303q34 0 64.5 11.5t54 33t37 53t13.5 71.5q0 34 -11 66.5t-32.5 58t-52.5 41.5t-70 16q-34 0 -63.5 -11t-51.5 -33t-35 -55.5t-13 -78.5q0 -85 45 -129t115 -44z" />
    <glyph glyph-name="colon" unicode=":" horiz-adv-x="233" 
d="M164 99v-98h-95v98h95zM164 496v-98h-95v98h95z" />
    <glyph glyph-name="semicolon" unicode=";" horiz-adv-x="241" 
d="M162 103v-77l-59 -155h-37l15 144v88h81zM171 496v-98h-95v98h95z" />
    <glyph glyph-name="less" unicode="&#x3c;" horiz-adv-x="549" 
d="M101 286l387 -216v-70l-454 260v52l454 262v-72z" />
    <glyph glyph-name="equal" unicode="=" horiz-adv-x="511" 
d="M439 410v-51h-367v51h367zM439 239v-52h-367v52h367z" />
    <glyph glyph-name="greater" unicode="&#x3e;" horiz-adv-x="549" 
d="M61 574l454 -262v-52l-454 -260v70l387 216l-387 216v72z" />
    <glyph glyph-name="question" unicode="?" horiz-adv-x="498" 
d="M249 710q48 0 87.5 -13.5t67 -38.5t43 -60.5t15.5 -79.5q0 -39 -11 -67t-28.5 -49t-38.5 -37.5t-41 -31.5q-41 -29 -60.5 -62.5t-19.5 -87.5h-69q-1 36 6 64.5t20.5 51.5t32 41.5t41.5 35.5q18 13 35.5 28t31.5 32.5t22.5 39t8.5 49.5q0 58 -38 92.5t-104 34.5
q-39 0 -67.5 -12t-47 -34t-27 -51.5t-7.5 -63.5h-66q0 48 13 88t39.5 69t67 45.5t94.5 16.5zM277 98v-98h-95v98h95z" />
    <glyph glyph-name="at" unicode="@" horiz-adv-x="879" 
d="M502 659q71 0 130 -21t101 -61.5t65.5 -98.5t23.5 -132q0 -22 -1.5 -44.5t-6.5 -46.5q-10 -57 -29.5 -100.5t-45 -73t-55.5 -45t-62 -15.5q-40 0 -66.5 23t-33.5 71q-25 -48 -60 -69.5t-77 -21.5q-56 0 -93 37.5t-37 112.5q0 15 1.5 31.5t5.5 33.5q10 49 28.5 87t43 64.5
t54 40t61.5 13.5q41 0 69 -22t39 -67l22 80h52l-45 -222q-4 -20 -6 -36.5t-2 -30.5q0 -42 15 -59t39 -17q22 0 41.5 14t35 39t27 59.5t19.5 76.5q5 23 6.5 44.5t1.5 41.5q0 64 -19.5 113t-55 83t-84.5 51.5t-107 17.5q-69 0 -131 -25t-111.5 -72.5t-84.5 -117t-50 -157.5
q-5 -24 -6.5 -46.5t-1.5 -43.5q0 -63 17.5 -113t49.5 -84.5t78.5 -52.5t103.5 -18q60 0 109 18.5t85 48.5l24 -50q-44 -32 -100 -49.5t-121 -17.5q-70 0 -126.5 22t-96.5 63t-61.5 100.5t-21.5 134.5q0 23 1.5 46.5t6.5 49.5q17 99 58.5 176t101 129.5t132 80t150.5 27.5z
M393 70q46 0 83 42.5t54 121.5q7 31 7 59q0 54 -25 79t-59 25q-49 0 -83 -42.5t-48 -116.5q-6 -33 -6 -61q0 -51 20 -79t57 -28z" />
    <glyph glyph-name="A" unicode="A" horiz-adv-x="658" 
d="M494 191h-333l-71 -191h-73l280 712h67l273 -712h-73zM473 249l-144 392l-146 -392h290z" />
    <glyph glyph-name="B" unicode="B" horiz-adv-x="643" 
d="M441 373q78 -16 113.5 -62t35.5 -122q0 -92 -55.5 -140.5t-175.5 -48.5h-267v700h265q111 -2 158.5 -47.5t47.5 -125.5q0 -63 -29 -101.5t-93 -52.5zM159 641v-244h178q75 0 115.5 28.5t40.5 94.5t-36.5 93.5t-109.5 27.5h-188zM357 58q81 0 122 32.5t41 103.5
q0 72 -40.5 109.5t-127.5 37.5h-193v-283h198z" />
    <glyph glyph-name="C" unicode="C" horiz-adv-x="647" 
d="M530 456q-2 43 -13.5 79t-34.5 62t-58.5 41t-84.5 15q-213 0 -213 -307q0 -153 57 -226t161 -73q93 0 137 49t48 132h67q-6 -118 -70 -179t-183 -61q-67 0 -120.5 21.5t-90.5 66t-56.5 111.5t-19.5 159q0 184 74.5 275t211.5 90q123 0 186 -68t69 -187h-67z" />
    <glyph glyph-name="D" unicode="D" horiz-adv-x="670" 
d="M274 700q176 0 258.5 -91.5t82.5 -258.5q0 -178 -85.5 -264t-259.5 -86h-178v700h182zM270 58q133 0 204 70.5t71 221.5q0 143 -64 217.5t-207 74.5h-115v-584h111z" />
    <glyph glyph-name="E" unicode="E" horiz-adv-x="582" 
d="M159 642v-245h347v-58h-347v-281h370v-58h-437v700h437v-58h-370z" />
    <glyph glyph-name="F" unicode="F" horiz-adv-x="564" 
d="M159 642v-276h327v-56h-327v-310h-67v700h433v-58h-366z" />
    <glyph glyph-name="G" unicode="G" horiz-adv-x="672" 
d="M624 334q-3 -171 -73 -258.5t-201 -87.5q-66 0 -120 22.5t-93 67.5t-60.5 112t-21.5 156q0 90 21.5 158.5t61 114.5t94.5 69t122 23q57 0 102.5 -16.5t78.5 -47t52.5 -73t23.5 -94.5h-69q-3 37 -16.5 68.5t-37 55t-58 36.5t-80.5 13q-106 0 -165.5 -75t-59.5 -232
q0 -153 60.5 -226.5t164.5 -73.5q102 0 151.5 66.5t52.5 194.5h-229v56h299v-29z" />
    <glyph glyph-name="H" unicode="H" horiz-adv-x="687" 
d="M595 700v-700h-67v328h-369v-328h-67v700h67v-314h369v314h67z" />
    <glyph glyph-name="I" unicode="I" horiz-adv-x="250" 
d="M159 700v-700h-67v700h67z" />
    <glyph glyph-name="J" unicode="J" horiz-adv-x="566" 
d="M479 216q0 -112 -56.5 -169.5t-163.5 -57.5q-48 0 -89.5 12.5t-71.5 39.5t-47.5 70t-18.5 105h68q1 -90 43 -129.5t116 -39.5q78 0 115.5 41.5t37.5 126.5v485h67v-484z" />
    <glyph glyph-name="K" unicode="K" horiz-adv-x="605" 
d="M595 0h-78l-236 388l-122 -131v-257h-67v700h67v-359l328 359h86l-248 -265z" />
    <glyph glyph-name="L" unicode="L" horiz-adv-x="548" 
d="M525 58v-58h-433v700h67v-642h366z" />
    <glyph glyph-name="M" unicode="M" horiz-adv-x="860" 
d="M768 0h-67v602l-247 -604h-43l-252 608v-606h-67v700h91l249 -612l246 612h90v-700z" />
    <glyph glyph-name="N" unicode="N" horiz-adv-x="691" 
d="M600 700v-701h-66l-375 583v-582h-67v700h65l376 -590v590h67z" />
    <glyph glyph-name="O" unicode="O" horiz-adv-x="705" 
d="M353 719q68 0 123 -23.5t93.5 -70t59.5 -115.5t21 -160t-21 -160t-59.5 -115.5t-93.5 -70t-123 -23.5t-123 23.5t-94 70t-60 115.5t-21 160t21 160t60 115.5t94 70t123 23.5zM353 661q-108 0 -168 -77t-60 -234t60 -234t168 -77q109 0 168 76.5t59 234.5t-59 234.5
t-168 76.5z" />
    <glyph glyph-name="P" unicode="P" horiz-adv-x="602" 
d="M344 700q105 0 161.5 -55t56.5 -158q0 -106 -58 -158.5t-164 -52.5h-181v-276h-67v700h252zM332 334q73 0 117.5 36.5t44.5 116.5q0 75 -40.5 115t-116.5 40l-178 1v-309h173z" />
    <glyph glyph-name="Q" unicode="Q" horiz-adv-x="706" 
d="M638 -80l-109 116q-70 -55 -176 -55q-68 0 -123 23.5t-94 70t-60 115.5t-21 160t21 160t60 115.5t94 70t123 23.5t123 -23.5t93.5 -70t59.5 -115.5t21 -160t-20 -158.5t-58 -114.5l108 -116zM353 39q81 0 134 42l-135 144l42 42l133 -142q53 77 53 225q0 158 -59 234.5
t-168 76.5q-108 0 -168 -77t-60 -234t60 -234t168 -77z" />
    <glyph glyph-name="R" unicode="R" horiz-adv-x="626" 
d="M582 0h-75l-153 290h-195v-290h-67v700h251q109 0 165.5 -55.5t56.5 -151.5q0 -76 -36.5 -126.5t-108.5 -67.5zM342 347q73 0 115 37t42 109t-41.5 110.5t-114.5 38.5h-184v-295h183z" />
    <glyph glyph-name="S" unicode="S" horiz-adv-x="614" 
d="M301 708q60 0 104.5 -15t74.5 -41t45 -62.5t17 -79.5h-68q0 30 -10.5 55.5t-31.5 44t-53.5 29.5t-77.5 11q-78 0 -123.5 -34t-45.5 -97q0 -35 14.5 -56t39.5 -33.5t59 -19.5t73 -13q49 -8 93.5 -18.5t79 -32t55 -57.5t20.5 -93q0 -99 -63.5 -153.5t-187.5 -54.5
q-58 0 -106.5 13.5t-83.5 41.5t-55.5 71.5t-22.5 103.5h69q1 -46 15.5 -78.5t40 -53.5t61.5 -30.5t81 -9.5q94 0 140 37.5t46 106.5q0 42 -16.5 68t-45 41t-66.5 23t-80 14q-46 7 -87 17t-71.5 28.5t-48.5 50t-18 81.5q0 93 61.5 144t172.5 51z" />
    <glyph glyph-name="T" unicode="T" horiz-adv-x="601" 
d="M578 642h-244v-642h-67v642h-245v58h556v-58z" />
    <glyph glyph-name="U" unicode="U" horiz-adv-x="684" 
d="M152 248q0 -99 49 -152.5t141 -53.5q91 0 140.5 53.5t49.5 152.5v452h66v-452q0 -122 -66.5 -192.5t-189.5 -70.5q-124 0 -190.5 70.5t-66.5 192.5v452h67v-452z" />
    <glyph glyph-name="V" unicode="V" horiz-adv-x="625" 
d="M602 700l-255 -706h-66l-259 706h74l216 -623l216 623h74z" />
    <glyph glyph-name="W" unicode="W" horiz-adv-x="958" 
d="M931 700l-219 -701h-57l-176 585l-174 -586h-58l-220 702h74l175 -594l179 595h52l177 -594l174 593h73z" />
    <glyph glyph-name="X" unicode="X" horiz-adv-x="601" 
d="M508 0l-209 315l-206 -315h-78l245 363l-234 337h82l194 -289l186 289h79l-228 -338l251 -362h-82z" />
    <glyph glyph-name="Y" unicode="Y" horiz-adv-x="624" 
d="M347 248v-248h-67v246l-260 454h78l216 -388l210 388h77z" />
    <glyph glyph-name="Z" unicode="Z" horiz-adv-x="600" 
d="M564 58v-58h-528v51l425 590h-412v59h504v-43l-434 -599h445z" />
    <glyph glyph-name="bracketleft" unicode="[" horiz-adv-x="320" 
d="M140 645v-729h145v-55h-212v839h219v-55h-152z" />
    <glyph glyph-name="backslash" unicode="\" horiz-adv-x="375" 
d="M346 -103h-62l-254 803h62z" />
    <glyph glyph-name="bracketright" unicode="]" horiz-adv-x="320" 
d="M28 700h219v-839h-212v55h145v729h-152v55z" />
    <glyph glyph-name="asciicircum" unicode="^" horiz-adv-x="449" 
d="M339 400l-114 249l-114 -249h-62l156 309h40l155 -309h-61z" />
    <glyph glyph-name="underscore" unicode="_" horiz-adv-x="413" 
d="M358 -2v-59h-302v59h302z" />
    <glyph glyph-name="grave" unicode="`" horiz-adv-x="234" 
d="M212 793h-61l-132 164h72z" />
    <glyph glyph-name="a" unicode="a" horiz-adv-x="517" 
d="M389 0q-3 26 -4.5 53t-2.5 56q-26 -57 -75 -88t-109 -31q-30 0 -59 8.5t-51 26t-35.5 44.5t-13.5 65q0 33 11 57.5t30 43t44.5 30.5t54.5 20l201 54v5q0 61 -29.5 94t-91.5 33q-61 0 -90.5 -29.5t-30.5 -76.5h-63q1 69 46.5 112.5t138.5 43.5q90 0 137 -43.5t47 -133.5
v-143q0 -58 1.5 -108.5t5.5 -92.5h-62zM209 38q31 0 60 12t52 34t38.5 53t20.5 69v85l-186 -53q-36 -10 -62.5 -33.5t-26.5 -70.5q0 -26 8.5 -44t23 -29.5t33.5 -17t39 -5.5z" />
    <glyph glyph-name="b" unicode="b" horiz-adv-x="563" 
d="M311 518q90 0 146 -66.5t56 -198.5q0 -67 -15.5 -117t-42.5 -83t-64.5 -49.5t-82.5 -16.5q-57 -1 -100.5 24.5t-68.5 79.5l-1 -91h-61v726h64v-317q26 57 69.5 83.5t100.5 25.5zM296 39q69 0 110 54t41 160t-40 159.5t-109 53.5q-33 0 -61.5 -13t-49.5 -39t-33.5 -66
t-12.5 -95t11.5 -95.5t32.5 -66.5t49.5 -39t61.5 -13z" />
    <glyph glyph-name="c" unicode="c" horiz-adv-x="516" 
d="M407 324q-4 63 -38 102.5t-100 39.5q-74 0 -113.5 -52.5t-39.5 -160.5t41.5 -161t115.5 -53q65 0 98 37.5t36 100.5h63q-5 -90 -56.5 -140t-140.5 -50q-49 0 -90 17t-71 50.5t-46.5 83t-16.5 115.5t16 115.5t45 82.5t69.5 50t89.5 17q91 0 143.5 -51.5t57.5 -142.5h-63z
" />
    <glyph glyph-name="d" unicode="d" horiz-adv-x="564" 
d="M431 0q-4 45 -6 94q-24 -56 -67.5 -82t-103.5 -25q-45 0 -82.5 16.5t-64.5 49.5t-42 83t-15 117q0 66 14.5 115.5t41.5 83t64.5 50t83.5 16.5q59 1 101.5 -24t66.5 -79v311h65v-525q0 -58 1.5 -108.5t5.5 -92.5h-63zM267 39q34 0 62.5 13t49 39t32 66.5t11.5 95.5
t-11.5 95t-32 66t-49 39t-62.5 13q-71 0 -111 -53.5t-40 -159.5t40 -160t111 -54z" />
    <glyph glyph-name="e" unicode="e" horiz-adv-x="530" 
d="M485 242h-370q2 -104 45 -154.5t118 -50.5q60 0 97 31t40 87h59q-7 -81 -59.5 -124.5t-135.5 -43.5q-53 0 -95.5 17.5t-72.5 51t-45.5 83.5t-15.5 115q0 129 60 196.5t162 67.5q100 0 156 -67.5t57 -196.5v-12zM271 466q-139 0 -154 -170h303q-4 85 -42 127.5t-107 42.5z
" />
    <glyph glyph-name="f" unicode="f" horiz-adv-x="346" 
d="M278 676q-51 0 -76.5 -29.5t-25.5 -95.5v-41h148v-52h-148v-458h-64v458h-90v52h90v43q0 91 42.5 133t115.5 42q21 0 36 -3t28 -8v-53q-23 12 -56 12z" />
    <glyph glyph-name="g" unicode="g" horiz-adv-x="564" 
d="M488 510v-514q0 -116 -53 -167t-156 -51q-46 0 -83.5 10t-64.5 30t-42 50.5t-16 71.5h65q8 -110 140 -110q75 0 110 38t35 126v105q-23 -55 -66 -80.5t-103 -25.5q-45 0 -82.5 16t-64.5 48.5t-42 81t-15 114.5t15 115.5t42 83t64.5 50t82.5 16.5q122 2 170 -107l1 99h63z
M267 46q34 0 62.5 11.5t49.5 36t32.5 64t11.5 95.5q0 55 -11.5 95t-32.5 66t-49.5 38t-62.5 12q-72 0 -111 -52t-39 -159q0 -106 39 -156.5t111 -50.5z" />
    <glyph glyph-name="h" unicode="h" horiz-adv-x="542" 
d="M300 523q36 0 67.5 -12t54.5 -36t36 -60.5t13 -86.5v-328h-65v328q0 70 -33 106.5t-90 36.5q-60 0 -100.5 -43.5t-40.5 -132.5v-295h-65v728h65v-302q24 49 65 73t93 24z" />
    <glyph glyph-name="i" unicode="i" horiz-adv-x="222" 
d="M145 622h-68v105h68v-105zM144 0h-65v510h65v-510z" />
    <glyph glyph-name="j" unicode="j" horiz-adv-x="222" 
d="M146 622h-69v105h69v-105zM144 -25q0 -94 -43.5 -143t-113.5 -49q-23 0 -37.5 3t-25.5 8v56q11 -5 23.5 -8.5t32.5 -3.5q46 0 72.5 34t26.5 101v537h65v-535z" />
    <glyph glyph-name="k" unicode="k" horiz-adv-x="486" 
d="M474 0h-71l-156 274l-106 -122v-152h-64v728h64v-496l232 278h79l-165 -190z" />
    <glyph glyph-name="l" unicode="l" horiz-adv-x="222" 
d="M143 728v-728h-64v728h64z" />
    <glyph glyph-name="m" unicode="m" horiz-adv-x="862" 
d="M618 523q36 0 67.5 -11t55 -35t37 -62.5t13.5 -93.5v-321h-66v313q0 44 -9 74t-25 49t-38 27t-48 8q-54 0 -93 -35t-45 -114v-322h-66v313q0 44 -9 74t-25 49t-38 27t-48 8q-54 0 -93 -35t-45 -114v-322h-66v510h61l3 -78q23 47 63 69t91 22q52 0 95 -24.5t63 -81.5
q23 54 66.5 80t98.5 26z" />
    <glyph glyph-name="n" unicode="n" horiz-adv-x="542" 
d="M300 523q36 0 67.5 -12t54.5 -36t36 -60.5t13 -86.5v-328h-65v328q0 70 -33 106.5t-90 36.5t-96 -37.5t-45 -115.5v-318h-65v510h61l2 -83q25 49 67 72.5t93 23.5z" />
    <glyph glyph-name="o" unicode="o" horiz-adv-x="536" 
d="M268 518q49 0 89.5 -18.5t69.5 -53t44.5 -83.5t15.5 -110q0 -62 -15.5 -111t-44.5 -83.5t-69.5 -53t-89.5 -18.5q-50 0 -90.5 18.5t-69 53t-44 83.5t-15.5 111q0 61 15.5 110t44 83.5t69 53t90.5 18.5zM268 466q-77 0 -115 -57.5t-38 -155.5q0 -100 38 -157t115 -57
q75 0 114 57t39 157q0 98 -39 155.5t-114 57.5z" />
    <glyph glyph-name="p" unicode="p" horiz-adv-x="563" 
d="M308 523q45 0 82.5 -16.5t64.5 -49.5t42.5 -83t15.5 -117q0 -66 -15.5 -115.5t-43 -83t-65.5 -50t-84 -16.5q-55 -1 -97 24t-67 78v-314h-64v730h61l1 -91q25 54 68.5 79.5t100.5 24.5zM298 44q69 0 109 53.5t40 159.5t-41 160t-110 54q-33 0 -61.5 -13t-49.5 -39
t-32.5 -66.5t-11.5 -95.5q0 -54 12.5 -94t33.5 -66.5t49.5 -39.5t61.5 -13z" />
    <glyph glyph-name="q" unicode="q" horiz-adv-x="563" 
d="M252 -8q-90 0 -146 66.5t-56 198.5q0 67 15.5 117t42.5 83t64.5 49.5t82.5 16.5q57 1 100.5 -24.5t68.5 -79.5l1 91h61v-726h-64v317q-26 -57 -69.5 -83.5t-100.5 -25.5zM267 471q-69 0 -110 -54t-41 -160t40 -159.5t109 -53.5q33 0 61.5 12.5t49.5 39t33.5 66.5t12.5 95
t-11.5 95.5t-32.5 66.5t-49.5 39t-61.5 13z" />
    <glyph glyph-name="r" unicode="r" horiz-adv-x="348" 
d="M272 521q18 0 31 -3t21 -7l-1 -58q-9 5 -22.5 9.5t-32.5 4.5q-55 0 -91 -44.5t-37 -128.5v-294h-63v510h60l1 -87q19 48 53.5 73t80.5 25z" />
    <glyph glyph-name="s" unicode="s" horiz-adv-x="489" 
d="M241 519q87 0 134.5 -41t49.5 -110h-61q-2 44 -32.5 72t-90.5 28q-51 0 -85 -23t-34 -69q0 -22 9.5 -36t26.5 -23t41.5 -14t54.5 -9q42 -5 77 -13t60.5 -23.5t39.5 -41.5t14 -67q0 -39 -14 -69t-39 -50.5t-60.5 -31t-78.5 -10.5q-42 0 -79.5 10.5t-66 32t-46 54
t-18.5 76.5h62q1 -30 13 -53t32.5 -38t46.5 -22.5t56 -7.5q56 0 93 26t37 78q0 26 -10.5 42t-29.5 26t-46 15t-59 10q-36 4 -68 12t-56.5 23t-39 39t-14.5 61q0 35 13.5 62.5t37.5 46t57 28.5t73 10z" />
    <glyph glyph-name="t" unicode="t" horiz-adv-x="367" 
d="M287 47q19 0 32 3.5t23 9.5v-54q-23 -13 -61 -13q-72 0 -117 45.5t-45 131.5v288h-101v52h101v161h65v-161h153v-52h-153v-288q0 -61 27.5 -92t75.5 -31z" />
    <glyph glyph-name="u" unicode="u" horiz-adv-x="543" 
d="M410 0q-4 45 -6 95q-24 -54 -67.5 -81t-98.5 -27q-36 0 -66 11.5t-52.5 35t-35 59.5t-12.5 86v331h65v-326q0 -74 32 -109.5t86 -35.5q31 0 58 12.5t46.5 37t30.5 62.5t11 89v270h65v-309q0 -58 1.5 -108.5t5.5 -92.5h-63z" />
    <glyph glyph-name="v" unicode="v" horiz-adv-x="496" 
d="M470 510l-189 -515h-64l-193 515h71l154 -444l151 444h70z" />
    <glyph glyph-name="w" unicode="w" horiz-adv-x="766" 
d="M738 510l-162 -511h-57l-134 413l-137 -413h-58l-161 511h71l121 -421l140 422h49l136 -421l122 420h70z" />
    <glyph glyph-name="x" unicode="x" horiz-adv-x="477" 
d="M279 271l184 -271h-78l-148 229l-145 -229h-73l181 273l-168 237h77l132 -193l123 193h73z" />
    <glyph glyph-name="y" unicode="y" 
d="M474 510l-195 -545q-16 -43 -33 -75.5t-37.5 -54t-46 -32.5t-59.5 -11q-23 0 -39 3t-28 8v59q12 -7 26 -10.5t33 -3.5q45 0 74.5 26.5t48.5 84.5l10 31l-206 520h71l164 -441l147 441h70z" />
    <glyph glyph-name="z" unicode="z" horiz-adv-x="456" 
d="M418 53v-53h-378v43l289 414h-283v53h364v-36l-293 -421h301z" />
    <glyph glyph-name="braceleft" unicode="{" horiz-adv-x="340" 
d="M311 650q-59 -1 -94 -38.5t-35 -108.5q0 -16 2 -32.5t6 -35.5q5 -20 6.5 -37.5t1.5 -32.5q0 -50 -22.5 -77.5t-67.5 -38.5q45 -11 67.5 -39.5t22.5 -79.5q0 -15 -2 -32t-6 -37q-7 -34 -7 -66q0 -71 34.5 -108.5t93.5 -38.5v-54q-45 -2 -81.5 11t-63 38.5t-41 62.5
t-14.5 84q0 17 1.5 35t6.5 38q5 22 7.5 40t2.5 33q0 51 -27 70t-84 19v47q57 0 84 19.5t27 69.5q0 15 -2.5 33t-7.5 39q-9 39 -9 74q0 46 14.5 83t41 62.5t63.5 38.5t82 12v-53z" />
    <glyph glyph-name="bar" unicode="|" horiz-adv-x="214" 
d="M140 730v-930h-67v930h67z" />
    <glyph glyph-name="braceright" unicode="}" horiz-adv-x="339" 
d="M29 703q45 1 82 -12t63.5 -38.5t41 -62.5t14.5 -83q0 -35 -9 -74q-5 -21 -7.5 -39t-2.5 -33q0 -50 27 -69.5t84 -19.5v-47q-57 0 -84 -19t-27 -70q0 -15 2.5 -33t7.5 -40q5 -20 6.5 -38t1.5 -35q0 -47 -14.5 -84t-41 -62.5t-63 -38.5t-81.5 -11v54q59 1 93.5 38.5
t34.5 108.5q0 32 -7 66q-4 20 -6 37t-2 32q0 51 22.5 79.5t67.5 39.5q-45 11 -67.5 38.5t-22.5 77.5q0 15 1.5 32.5t6.5 37.5q4 19 6 35.5t2 32.5q0 71 -35 108.5t-94 38.5v53z" />
    <glyph glyph-name="asciitilde" unicode="~" horiz-adv-x="534" 
d="M183 469q32 0 52.5 -10t43.5 -25q27 -18 43.5 -27.5t37.5 -9.5q49 0 49 63h57q2 -57 -24 -89t-79 -31q-29 0 -53 11.5t-53 28.5q-22 14 -38.5 23t-36.5 9q-49 0 -49 -63h-58q-2 57 27 88.5t81 31.5z" />
    <glyph glyph-name="uni00A0" unicode="&#xa0;" horiz-adv-x="237" 
 />
    <glyph glyph-name="exclamdown" unicode="&#xa1;" horiz-adv-x="231" 
d="M85 498h62l7 -500h-77zM68 699h95v-98h-95v98z" />
    <glyph glyph-name="cent" unicode="&#xa2;" horiz-adv-x="521" 
d="M479 281q-8 -77 -54 -124t-126 -54v-106h-52v106q-91 9 -142.5 72.5t-51.5 176.5q0 112 51.5 175t142.5 71v106h52v-106q82 -8 126.5 -58.5t51.5 -130.5h-61q-5 59 -32.5 95t-84.5 43v-393q55 6 84.5 39.5t34.5 87.5h61zM116 352q0 -90 34 -139.5t97 -57.5v391
q-131 -17 -131 -194z" />
    <glyph glyph-name="sterling" unicode="&#xa3;" horiz-adv-x="635" 
d="M592 138q5 -78 -27 -113.5t-95 -34.5q-35 0 -65 10t-58 21.5t-55.5 21.5t-55.5 10q-24 0 -40 -5t-30.5 -13.5t-31.5 -19t-42 -20.5l-17 48q54 20 80 55.5t26 90.5q0 35 -5.5 63t-14.5 54h-120v53h101q-12 32 -21.5 66.5t-9.5 79.5q0 97 59.5 149.5t160.5 52.5
q55 0 95.5 -14.5t68 -41.5t41.5 -65t16 -84h-69q-1 33 -10 60.5t-27 47t-46 30.5t-67 11q-69 0 -110.5 -36.5t-41.5 -109.5q0 -44 11 -77.5t24 -68.5h261v-53h-243q7 -24 11.5 -51.5t4.5 -61.5q0 -30 -10.5 -54t-25.5 -44q26 10 55 10q28 0 52.5 -8.5t48.5 -18.5t47 -19
t48 -9q38 -1 57.5 20.5t16.5 75.5z" />
    <glyph glyph-name="currency" unicode="&#xa4;" horiz-adv-x="520" 
d="M395 383q0 -48 -27 -83l85 -83l-31 -31l-82 87q-35 -24 -79 -24q-24 0 -45 7t-38 20l-81 -88l-31 31l85 84q-25 34 -25 80q0 47 25 81l-85 82l30 31l82 -85q35 27 83 27q47 0 82 -27l81 85l32 -31l-86 -81q25 -36 25 -82zM261 297q36 0 59.5 24.5t23.5 61.5
q0 38 -23.5 63t-59.5 25t-60 -25t-24 -63q0 -37 24 -61.5t60 -24.5z" />
    <glyph glyph-name="yen" unicode="&#xa5;" horiz-adv-x="652" 
d="M394 305h185v-45h-210l-7 -12v-55h217v-46h-217v-147h-67v147h-222v46h222v53l-8 14h-214v45h188l-226 395h78l216 -388l210 388h77z" />
    <glyph glyph-name="brokenbar" unicode="&#xa6;" horiz-adv-x="221" 
d="M77 730h67v-417h-67v417zM144 -200h-67v417h67v-417z" />
    <glyph glyph-name="section" unicode="&#xa7;" horiz-adv-x="508" 
d="M452 350q0 -45 -23 -75.5t-78 -42.5q38 -17 60.5 -43t22.5 -71q0 -35 -14 -61.5t-39 -44.5t-58.5 -27t-73.5 -9q-41 0 -76 10t-62 30.5t-43.5 52t-19.5 73.5h55q5 -60 46.5 -90.5t99.5 -30.5q26 0 49 6t40.5 17.5t27.5 28.5t10 39q0 24 -11 40t-30.5 27.5t-46.5 19.5
t-60 15q-79 17 -119.5 49.5t-40.5 88.5q0 46 26.5 76t75.5 38q-38 16 -60.5 41.5t-22.5 69.5q0 33 13.5 57.5t36.5 41.5t55 25.5t70 8.5q44 0 77 -11t55 -30t33 -45.5t13 -57.5h-54q-2 43 -33 71.5t-91 28.5q-23 0 -44.5 -5t-37.5 -15.5t-25.5 -26.5t-9.5 -38
q0 -21 9.5 -35.5t26.5 -24.5t41 -16.5t53 -11.5q87 -16 132 -51t45 -92zM230 268q15 -4 32.5 -6.5t35.5 -2.5q19 0 36.5 4t31 13t21.5 24.5t8 38.5q0 36 -32.5 62.5t-100.5 40.5q-18 3 -35 3q-49 0 -75 -23t-26 -61q0 -33 25 -55.5t79 -37.5z" />
    <glyph glyph-name="dieresis" unicode="&#xa8;" horiz-adv-x="328" 
d="M103 793h-68v101h68v-101zM290 793h-68v101h68v-101z" />
    <glyph glyph-name="copyright" unicode="&#xa9;" horiz-adv-x="626" 
d="M312 195q-54 0 -100.5 18.5t-81 52.5t-54 81t-19.5 104t19.5 104t54 80.5t81 52t100.5 18.5t100.5 -18.5t81 -52t54.5 -80.5t20 -104t-20 -104t-54.5 -81t-81 -52.5t-100.5 -18.5zM314 234q44 0 82.5 16t67.5 44.5t45.5 68.5t16.5 88t-16.5 88t-45.5 68.5t-67.5 44.5
t-82.5 16t-83 -16t-68 -44.5t-45.5 -68.5t-16.5 -88t16.5 -88t45.5 -68.5t68 -44.5t83 -16zM384 478q-2 78 -69 78q-78 0 -78 -105q0 -54 21.5 -79.5t57.5 -25.5q67 0 69 75h54q-4 -63 -36.5 -92t-86.5 -29q-62 0 -98 38t-36 113q0 73 35.5 111.5t98.5 38.5q56 0 87.5 -30.5
t35.5 -92.5h-55z" />
    <glyph glyph-name="ordfeminine" unicode="&#xaa;" 
 />
    <glyph glyph-name="guillemotleft" unicode="&#xab;" horiz-adv-x="538" 
d="M233 510h74l-207 -255l207 -255h-74l-203 242v27zM432 510h74l-207 -255l207 -255h-74l-203 242v27z" />
    <glyph glyph-name="logicalnot" unicode="&#xac;" 
 />
    <glyph glyph-name="uni00AD" unicode="&#xad;" horiz-adv-x="439" 
d="M371 312v-59h-302v59h302z" />
    <glyph glyph-name="registered" unicode="&#xae;" horiz-adv-x="626" 
d="M312 195q-54 0 -100.5 18.5t-81 52.5t-54 81t-19.5 104t19.5 104t54 80.5t81 52t100.5 18.5t100.5 -18.5t81 -52t54.5 -80.5t20 -104t-20 -104t-54.5 -81t-81 -52.5t-100.5 -18.5zM314 234q44 0 82.5 16t67.5 44.5t45.5 68.5t16.5 88t-16.5 88t-45.5 68.5t-67.5 44.5
t-82.5 16t-83 -16t-68 -44.5t-45.5 -68.5t-16.5 -88t16.5 -88t45.5 -68.5t68 -44.5t83 -16zM329 416h-73v-110h-52v288h132q49 0 73.5 -23t24.5 -65q0 -32 -13.5 -53.5t-42.5 -30.5l65 -116h-58zM256 459h64q31 0 47 10t16 35q0 49 -63 49h-64v-94z" />
    <glyph glyph-name="macron" unicode="&#xaf;" horiz-adv-x="413" 
d="M392 796h-370v57h370v-57z" />
    <glyph glyph-name="degree" unicode="&#xb0;" horiz-adv-x="313" 
d="M156 707q22 0 41.5 -8t34 -22.5t22.5 -34t8 -42.5q0 -46 -30.5 -76t-75.5 -30t-75.5 30t-30.5 76q0 47 30.5 77t75.5 30zM156 669q-29 0 -47.5 -19.5t-18.5 -49.5q0 -29 18.5 -48.5t47.5 -19.5t47.5 19.5t18.5 48.5q0 30 -18.5 49.5t-47.5 19.5z" />
    <glyph glyph-name="plusminus" unicode="&#xb1;" 
 />
    <glyph glyph-name="twosuperior" unicode="&#xb2;" 
 />
    <glyph glyph-name="threesuperior" unicode="&#xb3;" 
 />
    <glyph glyph-name="acute" unicode="&#xb4;" horiz-adv-x="234" 
d="M213 957l-132 -164h-61l121 164h72z" />
    <glyph glyph-name="mu" unicode="&#xb5;" 
 />
    <glyph glyph-name="paragraph" unicode="&#xb6;" horiz-adv-x="589" 
d="M512 -100h-63v747h-81v-747h-63v379h-52q-101 0 -161 52t-60 158q0 102 58 156.5t158 54.5h264v-800z" />
    <glyph glyph-name="periodcentered" unicode="&#xb7;" horiz-adv-x="233" 
d="M164 424v-98h-95v98h95z" />
    <glyph glyph-name="cedilla" unicode="&#xb8;" horiz-adv-x="223" 
d="M121 -50q33 0 57.5 -19.5t24.5 -54.5q0 -38 -28 -60.5t-74 -22.5q-23 0 -42 5.5t-36 13.5l2 36q35 -20 71 -20q29 0 43.5 12.5t14.5 32.5t-12.5 31t-34.5 11q-17 0 -29 -7t-20 -17l-33 18l61 97h43l-46 -65q16 9 38 9z" />
    <glyph glyph-name="onesuperior" unicode="&#xb9;" 
 />
    <glyph glyph-name="ordmasculine" unicode="&#xba;" 
 />
    <glyph glyph-name="guillemotright" unicode="&#xbb;" horiz-adv-x="538" 
d="M106 510l203 -241v-27l-203 -242h-74l207 255l-207 255h74zM305 510l203 -241v-27l-203 -242h-74l207 255l-207 255h74z" />
    <glyph glyph-name="onequarter" unicode="&#xbc;" horiz-adv-x="730" 
d="M528 700l-386 -700h-61l387 700h60zM697 108h-61v-108h-50v108h-193v45l196 267h47v-267h61v-45zM586 153v196l-141 -196h141zM160 701v-421h-50v350q-11 -18 -31 -28.5t-47 -12.5v38q33 4 54 23.5t25 50.5h49z" />
    <glyph glyph-name="onehalf" unicode="&#xbd;" horiz-adv-x="728" 
d="M528 700l-386 -700h-61l387 700h60zM683 0h-276v33q0 38 10 65t27.5 47t40.5 34.5t49 28.5q19 10 36.5 19t30 19.5t20 25t7.5 34.5q0 35 -21.5 55.5t-57.5 20.5q-44 0 -65 -26t-20 -67h-49q2 60 36.5 98.5t98.5 38.5q58 0 93.5 -34t35.5 -90q0 -30 -10 -50.5t-26 -35.5
t-37 -25.5t-42 -20.5q-22 -11 -41 -21.5t-33 -24.5t-22.5 -33t-9.5 -45h225v-46zM160 701v-421h-50v350q-11 -18 -31 -28.5t-47 -12.5v38q33 4 54 23.5t25 50.5h49z" />
    <glyph glyph-name="threequarters" unicode="&#xbe;" horiz-adv-x="848" 
d="M646 700l-386 -700h-61l387 700h60zM815 108h-61v-108h-50v108h-193v45l196 267h47v-267h61v-45zM704 153v196l-141 -196h141zM249 505q39 -10 60.5 -36t21.5 -73q0 -58 -35 -90t-104 -32q-32 0 -59 8t-47 25t-31.5 43t-12.5 62h49q2 -51 29 -72.5t69 -21.5q45 0 67 21.5
t22 59.5q0 42 -25 61.5t-76 19.5h-46v41h46q42 0 64 16t22 51t-21 53.5t-59 18.5q-40 0 -61 -21.5t-20 -56.5h-49q2 54 33.5 87.5t98.5 33.5q62 0 97 -30.5t35 -81.5q0 -35 -17.5 -56t-50.5 -30z" />
    <glyph glyph-name="questiondown" unicode="&#xbf;" horiz-adv-x="499" 
d="M249 -10q-48 0 -87.5 13.5t-67 38.5t-43 60.5t-15.5 79.5q0 39 11 67t28 49t38.5 37.5t41.5 31.5q41 29 60.5 62.5t19.5 87.5h69q1 -36 -6 -64.5t-20.5 -51.5t-32 -41.5t-41.5 -35.5q-18 -14 -35.5 -28.5t-31.5 -32t-22.5 -39t-8.5 -49.5q0 -58 38 -92.5t104 -34.5
q39 0 67.5 12t47 34t27 51t7.5 64h66q0 -48 -13 -88t-39.5 -69t-67 -45.5t-94.5 -16.5zM221 602v98h95v-98h-95z" />
    <glyph glyph-name="Agrave" unicode="&#xc0;" horiz-adv-x="658" 
d="M494 191h-333l-71 -191h-73l280 712h67l273 -712h-73zM473 249l-144 392l-146 -392h290zM405 792h-61l-132 164h72z" />
    <glyph glyph-name="Aacute" unicode="&#xc1;" horiz-adv-x="658" 
d="M494 191h-333l-71 -191h-73l280 712h67l273 -712h-73zM473 249l-144 392l-146 -392h290zM454 956l-132 -164h-61l121 164h72z" />
    <glyph glyph-name="Acircumflex" unicode="&#xc2;" horiz-adv-x="658" 
d="M494 191h-333l-71 -191h-73l280 712h67l273 -712h-73zM473 249l-144 392l-146 -392h290zM419 794l-91 135l-91 -135h-65l133 191h47l132 -191h-65z" />
    <glyph glyph-name="Atilde" unicode="&#xc3;" horiz-adv-x="658" 
d="M494 191h-333l-71 -191h-73l280 712h67l273 -712h-73zM473 249l-144 392l-146 -392h290zM236 913q30 0 50.5 -10t42.5 -24q26 -17 42 -26.5t36 -9.5q48 0 48 61h55q2 -54 -23.5 -85.5t-76.5 -30.5q-29 0 -51.5 11t-51.5 28q-21 13 -37 22t-35 9q-23 0 -35.5 -16
t-12.5 -45h-56q-2 55 26 85.5t79 30.5z" />
    <glyph glyph-name="Adieresis" unicode="&#xc4;" horiz-adv-x="658" 
d="M494 191h-333l-71 -191h-73l280 712h67l273 -712h-73zM473 249l-144 392l-146 -392h290zM274 792h-68v101h68v-101zM461 792h-68v101h68v-101z" />
    <glyph glyph-name="Aring" unicode="&#xc5;" horiz-adv-x="658" 
d="M494 191h-333l-71 -191h-73l280 712h67l273 -712h-73zM473 249l-144 392l-146 -392h290zM330 1017q28 0 52 -9t41 -25t27 -39.5t10 -51.5q0 -29 -10 -52t-27 -39t-41 -25t-52 -9t-51.5 9t-41 25t-27 39t-9.5 52q0 28 9.5 51.5t27 39.5t41 25t51.5 9zM331 975
q-35 0 -58.5 -22.5t-23.5 -60.5t23.5 -60t58.5 -22t58.5 22t23.5 60t-23.5 60.5t-58.5 22.5z" />
    <glyph glyph-name="AE" unicode="&#xc6;" horiz-adv-x="974" 
d="M547 642v-268h349v-56h-349v-260h373v-58h-440v217h-260l-137 -217h-79l458 700h458v-58h-373zM480 274v356l-224 -356h224z" />
    <glyph glyph-name="Ccedilla" unicode="&#xc7;" horiz-adv-x="647" 
d="M344 47q93 0 137 49t48 132h67q-6 -112 -65 -173.5t-168 -66.5l-34 -47q16 9 38 9q33 0 57.5 -19.5t24.5 -54.5q0 -38 -28 -60.5t-74 -22.5q-23 0 -42 5.5t-36 13.5l2 36q35 -20 71 -20q29 0 43.5 12.5t14.5 32.5t-12.5 31t-34.5 11q-17 0 -29 -7t-20 -17l-33 18l50 80
q-125 7 -195 94t-70 263q0 184 74.5 275t211.5 90q123 0 186 -68t69 -187h-67q-2 43 -13.5 79t-34.5 62t-58.5 41t-84.5 15q-213 0 -213 -307q0 -153 57 -226t161 -73z" />
    <glyph glyph-name="Egrave" unicode="&#xc8;" horiz-adv-x="582" 
d="M159 642v-245h347v-58h-347v-281h370v-58h-437v700h437v-58h-370zM395 792h-61l-132 164h72z" />
    <glyph glyph-name="Eacute" unicode="&#xc9;" horiz-adv-x="582" 
d="M159 642v-245h347v-58h-347v-281h370v-58h-437v700h437v-58h-370zM444 956l-132 -164h-61l121 164h72z" />
    <glyph glyph-name="Ecircumflex" unicode="&#xca;" horiz-adv-x="582" 
d="M159 642v-245h347v-58h-347v-281h370v-58h-437v700h437v-58h-370zM409 794l-91 135l-91 -135h-65l133 191h47l132 -191h-65z" />
    <glyph glyph-name="Edieresis" unicode="&#xcb;" horiz-adv-x="582" 
d="M159 642v-245h347v-58h-347v-281h370v-58h-437v700h437v-58h-370zM264 792h-68v101h68v-101zM451 792h-68v101h68v-101z" />
    <glyph glyph-name="Igrave" unicode="&#xcc;" horiz-adv-x="250" 
d="M159 700v-700h-67v700h67zM201 792h-61l-132 164h72z" />
    <glyph glyph-name="Iacute" unicode="&#xcd;" horiz-adv-x="250" 
d="M159 700v-700h-67v700h67zM250 956l-132 -164h-61l121 164h72z" />
    <glyph glyph-name="Icircumflex" unicode="&#xce;" horiz-adv-x="250" 
d="M159 700v-700h-67v700h67zM215 794l-91 135l-91 -135h-65l133 191h47l132 -191h-65z" />
    <glyph glyph-name="Idieresis" unicode="&#xcf;" horiz-adv-x="250" 
d="M159 700v-700h-67v700h67zM70 792h-68v101h68v-101zM257 792h-68v101h68v-101z" />
    <glyph glyph-name="Eth" unicode="&#xd0;" horiz-adv-x="670" 
d="M274 700q176 0 258.5 -91.5t82.5 -258.5q0 -178 -85.5 -264t-259.5 -86h-178v324h-70v58h70v318h182zM270 58q133 0 204 70.5t71 221.5q0 143 -64 217.5t-207 74.5h-115v-260h215v-58h-215v-266h111z" />
    <glyph glyph-name="Ntilde" unicode="&#xd1;" horiz-adv-x="691" 
d="M600 700v-701h-66l-375 583v-582h-67v700h65l376 -590v590h67zM253 913q30 0 50.5 -10t42.5 -24q26 -17 42 -26.5t36 -9.5q48 0 48 61h55q2 -54 -23.5 -85.5t-76.5 -30.5q-29 0 -51.5 11t-51.5 28q-21 13 -37 22t-35 9q-23 0 -35.5 -16t-12.5 -45h-56q-2 55 26 85.5
t79 30.5z" />
    <glyph glyph-name="Ograve" unicode="&#xd2;" horiz-adv-x="705" 
d="M353 719q68 0 123 -23.5t93.5 -70t59.5 -115.5t21 -160t-21 -160t-59.5 -115.5t-93.5 -70t-123 -23.5t-123 23.5t-94 70t-60 115.5t-21 160t21 160t60 115.5t94 70t123 23.5zM353 661q-108 0 -168 -77t-60 -234t60 -234t168 -77q109 0 168 76.5t59 234.5t-59 234.5
t-168 76.5zM429 792h-61l-132 164h72z" />
    <glyph glyph-name="Oacute" unicode="&#xd3;" horiz-adv-x="705" 
d="M353 719q68 0 123 -23.5t93.5 -70t59.5 -115.5t21 -160t-21 -160t-59.5 -115.5t-93.5 -70t-123 -23.5t-123 23.5t-94 70t-60 115.5t-21 160t21 160t60 115.5t94 70t123 23.5zM353 661q-108 0 -168 -77t-60 -234t60 -234t168 -77q109 0 168 76.5t59 234.5t-59 234.5
t-168 76.5zM478 956l-132 -164h-61l121 164h72z" />
    <glyph glyph-name="Ocircumflex" unicode="&#xd4;" horiz-adv-x="705" 
d="M353 719q68 0 123 -23.5t93.5 -70t59.5 -115.5t21 -160t-21 -160t-59.5 -115.5t-93.5 -70t-123 -23.5t-123 23.5t-94 70t-60 115.5t-21 160t21 160t60 115.5t94 70t123 23.5zM353 661q-108 0 -168 -77t-60 -234t60 -234t168 -77q109 0 168 76.5t59 234.5t-59 234.5
t-168 76.5zM443 794l-91 135l-91 -135h-65l133 191h47l132 -191h-65z" />
    <glyph glyph-name="Otilde" unicode="&#xd5;" horiz-adv-x="705" 
d="M353 719q68 0 123 -23.5t93.5 -70t59.5 -115.5t21 -160t-21 -160t-59.5 -115.5t-93.5 -70t-123 -23.5t-123 23.5t-94 70t-60 115.5t-21 160t21 160t60 115.5t94 70t123 23.5zM353 661q-108 0 -168 -77t-60 -234t60 -234t168 -77q109 0 168 76.5t59 234.5t-59 234.5
t-168 76.5zM260 913q30 0 50.5 -10t42.5 -24q26 -17 42 -26.5t36 -9.5q48 0 48 61h55q2 -54 -23.5 -85.5t-76.5 -30.5q-29 0 -51.5 11t-51.5 28q-21 13 -37 22t-35 9q-23 0 -35.5 -16t-12.5 -45h-56q-2 55 26 85.5t79 30.5z" />
    <glyph glyph-name="Odieresis" unicode="&#xd6;" horiz-adv-x="705" 
d="M353 719q68 0 123 -23.5t93.5 -70t59.5 -115.5t21 -160t-21 -160t-59.5 -115.5t-93.5 -70t-123 -23.5t-123 23.5t-94 70t-60 115.5t-21 160t21 160t60 115.5t94 70t123 23.5zM353 661q-108 0 -168 -77t-60 -234t60 -234t168 -77q109 0 168 76.5t59 234.5t-59 234.5
t-168 76.5zM298 792h-68v101h68v-101zM485 792h-68v101h68v-101z" />
    <glyph glyph-name="multiply" unicode="&#xd7;" 
 />
    <glyph glyph-name="Oslash" unicode="&#xd8;" horiz-adv-x="731" 
d="M507 691q80 -37 124.5 -122t44.5 -219q0 -92 -21.5 -161.5t-61.5 -115.5t-97.5 -69t-128.5 -23q-44 0 -83 9l-29 -93h-64l36 112q-81 37 -126 122t-45 219q0 92 22 161.5t62.5 115.5t98 69t128.5 23q44 0 82 -9l29 90h63zM126 350q0 -109 30.5 -179t89.5 -102l185 584
q-28 7 -64 7q-115 0 -178 -76t-63 -234zM367 40q115 0 177.5 76t62.5 234q0 109 -30.5 179.5t-88.5 102.5l-186 -585q28 -7 65 -7z" />
    <glyph glyph-name="Ugrave" unicode="&#xd9;" horiz-adv-x="684" 
d="M152 248q0 -99 49 -152.5t141 -53.5q91 0 140.5 53.5t49.5 152.5v452h66v-452q0 -122 -66.5 -192.5t-189.5 -70.5q-124 0 -190.5 70.5t-66.5 192.5v452h67v-452zM419 792h-61l-132 164h72z" />
    <glyph glyph-name="Uacute" unicode="&#xda;" horiz-adv-x="684" 
d="M152 248q0 -99 49 -152.5t141 -53.5q91 0 140.5 53.5t49.5 152.5v452h66v-452q0 -122 -66.5 -192.5t-189.5 -70.5q-124 0 -190.5 70.5t-66.5 192.5v452h67v-452zM468 956l-132 -164h-61l121 164h72z" />
    <glyph glyph-name="Ucircumflex" unicode="&#xdb;" horiz-adv-x="684" 
d="M152 248q0 -99 49 -152.5t141 -53.5q91 0 140.5 53.5t49.5 152.5v452h66v-452q0 -122 -66.5 -192.5t-189.5 -70.5q-124 0 -190.5 70.5t-66.5 192.5v452h67v-452zM433 794l-91 135l-91 -135h-65l133 191h47l132 -191h-65z" />
    <glyph glyph-name="Udieresis" unicode="&#xdc;" horiz-adv-x="684" 
d="M152 248q0 -99 49 -152.5t141 -53.5q91 0 140.5 53.5t49.5 152.5v452h66v-452q0 -122 -66.5 -192.5t-189.5 -70.5q-124 0 -190.5 70.5t-66.5 192.5v452h67v-452zM288 792h-68v101h68v-101zM475 792h-68v101h68v-101z" />
    <glyph glyph-name="Yacute" unicode="&#xdd;" horiz-adv-x="624" 
d="M347 248v-248h-67v246l-260 454h78l216 -388l210 388h77zM437 956l-132 -164h-61l121 164h72z" />
    <glyph glyph-name="Thorn" unicode="&#xde;" horiz-adv-x="608" 
d="M343 563q107 0 167 -54.5t60 -156.5q0 -106 -62 -158t-169 -52h-180v-142h-67v700h67v-137h184zM335 200q77 0 121.5 36t44.5 116q0 75 -41 114.5t-119 39.5h-182v-306h176z" />
    <glyph glyph-name="germandbls" unicode="&#xdf;" horiz-adv-x="569" 
d="M369 391q77 -15 115 -65t38 -128q0 -97 -54 -150.5t-153 -53.5q-52 0 -90 16v64q20 -11 40.5 -16.5t45.5 -5.5q62 0 101.5 38.5t39.5 113.5q0 72 -39.5 112.5t-116.5 40.5h-71v57h51q64 -2 100 29.5t36 96.5q0 34 -10 58t-27.5 39.5t-40.5 22.5t-50 7q-30 0 -56.5 -8.5
t-45.5 -28.5t-30 -52t-11 -78v-500h-64v500q0 58 16 100t43.5 69.5t66 41t83.5 13.5q43 0 79 -12.5t61 -35.5t39 -56.5t14 -76.5q0 -57 -26.5 -96.5t-83.5 -55.5z" />
    <glyph glyph-name="agrave" unicode="&#xe0;" horiz-adv-x="517" 
d="M389 0q-3 26 -4.5 53t-2.5 56q-26 -57 -75 -88t-109 -31q-30 0 -59 8.5t-51 26t-35.5 44.5t-13.5 65q0 33 11 57.5t30 43t44.5 30.5t54.5 20l201 54v5q0 61 -29.5 94t-91.5 33q-61 0 -90.5 -29.5t-30.5 -76.5h-63q1 69 46.5 112.5t138.5 43.5q90 0 137 -43.5t47 -133.5
v-143q0 -58 1.5 -108.5t5.5 -92.5h-62zM209 38q31 0 60 12t52 34t38.5 53t20.5 69v85l-186 -53q-36 -10 -62.5 -33.5t-26.5 -70.5q0 -26 8.5 -44t23 -29.5t33.5 -17t39 -5.5zM337 602h-61l-132 164h72z" />
    <glyph glyph-name="aacute" unicode="&#xe1;" horiz-adv-x="517" 
d="M389 0q-3 26 -4.5 53t-2.5 56q-26 -57 -75 -88t-109 -31q-30 0 -59 8.5t-51 26t-35.5 44.5t-13.5 65q0 33 11 57.5t30 43t44.5 30.5t54.5 20l201 54v5q0 61 -29.5 94t-91.5 33q-61 0 -90.5 -29.5t-30.5 -76.5h-63q1 69 46.5 112.5t138.5 43.5q90 0 137 -43.5t47 -133.5
v-143q0 -58 1.5 -108.5t5.5 -92.5h-62zM209 38q31 0 60 12t52 34t38.5 53t20.5 69v85l-186 -53q-36 -10 -62.5 -33.5t-26.5 -70.5q0 -26 8.5 -44t23 -29.5t33.5 -17t39 -5.5zM386 766l-132 -164h-61l121 164h72z" />
    <glyph glyph-name="acircumflex" unicode="&#xe2;" horiz-adv-x="517" 
d="M389 0q-3 26 -4.5 53t-2.5 56q-26 -57 -75 -88t-109 -31q-30 0 -59 8.5t-51 26t-35.5 44.5t-13.5 65q0 33 11 57.5t30 43t44.5 30.5t54.5 20l201 54v5q0 61 -29.5 94t-91.5 33q-61 0 -90.5 -29.5t-30.5 -76.5h-63q1 69 46.5 112.5t138.5 43.5q90 0 137 -43.5t47 -133.5
v-143q0 -58 1.5 -108.5t5.5 -92.5h-62zM209 38q31 0 60 12t52 34t38.5 53t20.5 69v85l-186 -53q-36 -10 -62.5 -33.5t-26.5 -70.5q0 -26 8.5 -44t23 -29.5t33.5 -17t39 -5.5zM351 604l-91 135l-91 -135h-65l133 191h47l132 -191h-65z" />
    <glyph glyph-name="atilde" unicode="&#xe3;" horiz-adv-x="517" 
d="M389 0q-3 26 -4.5 53t-2.5 56q-26 -57 -75 -88t-109 -31q-30 0 -59 8.5t-51 26t-35.5 44.5t-13.5 65q0 33 11 57.5t30 43t44.5 30.5t54.5 20l201 54v5q0 61 -29.5 94t-91.5 33q-61 0 -90.5 -29.5t-30.5 -76.5h-63q1 69 46.5 112.5t138.5 43.5q90 0 137 -43.5t47 -133.5
v-143q0 -58 1.5 -108.5t5.5 -92.5h-62zM209 38q31 0 60 12t52 34t38.5 53t20.5 69v85l-186 -53q-36 -10 -62.5 -33.5t-26.5 -70.5q0 -26 8.5 -44t23 -29.5t33.5 -17t39 -5.5zM168 723q30 0 50.5 -10t42.5 -24q26 -17 42 -26.5t36 -9.5q48 0 48 61h55q2 -54 -23.5 -85.5
t-76.5 -30.5q-29 0 -51.5 11t-51.5 28q-21 13 -37 22t-35 9q-23 0 -35.5 -16t-12.5 -45h-56q-2 55 26 85.5t79 30.5z" />
    <glyph glyph-name="adieresis" unicode="&#xe4;" horiz-adv-x="517" 
d="M389 0q-3 26 -4.5 53t-2.5 56q-26 -57 -75 -88t-109 -31q-30 0 -59 8.5t-51 26t-35.5 44.5t-13.5 65q0 33 11 57.5t30 43t44.5 30.5t54.5 20l201 54v5q0 61 -29.5 94t-91.5 33q-61 0 -90.5 -29.5t-30.5 -76.5h-63q1 69 46.5 112.5t138.5 43.5q90 0 137 -43.5t47 -133.5
v-143q0 -58 1.5 -108.5t5.5 -92.5h-62zM209 38q31 0 60 12t52 34t38.5 53t20.5 69v85l-186 -53q-36 -10 -62.5 -33.5t-26.5 -70.5q0 -26 8.5 -44t23 -29.5t33.5 -17t39 -5.5zM206 602h-68v101h68v-101zM393 602h-68v101h68v-101z" />
    <glyph glyph-name="aring" unicode="&#xe5;" horiz-adv-x="517" 
d="M389 0q-3 26 -4.5 53t-2.5 56q-26 -57 -75 -88t-109 -31q-30 0 -59 8.5t-51 26t-35.5 44.5t-13.5 65q0 33 11 57.5t30 43t44.5 30.5t54.5 20l201 54v5q0 61 -29.5 94t-91.5 33q-61 0 -90.5 -29.5t-30.5 -76.5h-63q1 69 46.5 112.5t138.5 43.5q90 0 137 -43.5t47 -133.5
v-143q0 -58 1.5 -108.5t5.5 -92.5h-62zM209 38q31 0 60 12t52 34t38.5 53t20.5 69v85l-186 -53q-36 -10 -62.5 -33.5t-26.5 -70.5q0 -26 8.5 -44t23 -29.5t33.5 -17t39 -5.5zM262 827q28 0 52 -9t41 -25t27 -39.5t10 -51.5q0 -29 -10 -52t-27 -39t-41 -25t-52 -9t-51.5 9
t-41 25t-27 39t-9.5 52q0 28 9.5 51.5t27 39.5t41 25t51.5 9zM263 785q-35 0 -58.5 -22.5t-23.5 -60.5t23.5 -60t58.5 -22t58.5 22t23.5 60t-23.5 60.5t-58.5 22.5z" />
    <glyph glyph-name="ae" unicode="&#xe6;" horiz-adv-x="864" 
d="M820 243h-371q2 -104 43.5 -155t118.5 -51q61 0 98 30.5t40 88.5h59q-7 -86 -59.5 -127.5t-136.5 -41.5q-156 0 -201 139q-23 -73 -77.5 -108.5t-125.5 -35.5q-35 0 -65.5 8t-53.5 25.5t-36.5 44t-13.5 63.5q0 39 14 66t37.5 45.5t55.5 30.5t68 21l166 43v14
q0 66 -30.5 98t-95.5 32q-34 0 -57.5 -8.5t-39 -22.5t-23 -33t-8.5 -41h-53q2 33 13.5 61t33.5 48.5t56.5 32.5t82.5 12q66 0 107.5 -26.5t56.5 -83.5q51 106 184 106q99 0 155 -64.5t58 -198.5v-12zM604 466q-68 0 -106.5 -41t-46.5 -128h303q-5 84 -43 126.5t-107 42.5z
M214 33q31 0 61 11t53 34t37.5 57t14.5 81v65l-161 -44q-24 -6 -45 -14.5t-36.5 -21t-25 -30.5t-9.5 -43q0 -50 33 -72.5t78 -22.5z" />
    <glyph glyph-name="ccedilla" unicode="&#xe7;" horiz-adv-x="516" 
d="M273 39q65 0 98 37.5t36 100.5h63q-5 -88 -53.5 -137.5t-133.5 -52.5l-33 -46q16 9 38 9q33 0 57.5 -19.5t24.5 -54.5q0 -38 -28 -60.5t-74 -22.5q-23 0 -42 5.5t-36 13.5l2 36q35 -20 71 -20q29 0 43.5 12.5t14.5 32.5t-12.5 31t-34.5 11q-17 0 -29 -7t-20 -17l-33 18
l50 80q-43 5 -78.5 24t-61 52.5t-39.5 80.5t-14 107q0 66 16 115.5t45 82.5t69.5 50t89.5 17q91 0 143.5 -51.5t57.5 -142.5h-63q-4 63 -38 102.5t-100 39.5q-74 0 -113.5 -52.5t-39.5 -160.5t41.5 -161t115.5 -53z" />
    <glyph glyph-name="egrave" unicode="&#xe8;" horiz-adv-x="530" 
d="M485 242h-370q2 -104 45 -154.5t118 -50.5q60 0 97 31t40 87h59q-7 -81 -59.5 -124.5t-135.5 -43.5q-53 0 -95.5 17.5t-72.5 51t-45.5 83.5t-15.5 115q0 129 60 196.5t162 67.5q100 0 156 -67.5t57 -196.5v-12zM271 466q-139 0 -154 -170h303q-4 85 -42 127.5t-107 42.5z
M348 602h-61l-132 164h72z" />
    <glyph glyph-name="eacute" unicode="&#xe9;" horiz-adv-x="530" 
d="M485 242h-370q2 -104 45 -154.5t118 -50.5q60 0 97 31t40 87h59q-7 -81 -59.5 -124.5t-135.5 -43.5q-53 0 -95.5 17.5t-72.5 51t-45.5 83.5t-15.5 115q0 129 60 196.5t162 67.5q100 0 156 -67.5t57 -196.5v-12zM271 466q-139 0 -154 -170h303q-4 85 -42 127.5t-107 42.5z
M397 766l-132 -164h-61l121 164h72z" />
    <glyph glyph-name="ecircumflex" unicode="&#xea;" horiz-adv-x="530" 
d="M485 242h-370q2 -104 45 -154.5t118 -50.5q60 0 97 31t40 87h59q-7 -81 -59.5 -124.5t-135.5 -43.5q-53 0 -95.5 17.5t-72.5 51t-45.5 83.5t-15.5 115q0 129 60 196.5t162 67.5q100 0 156 -67.5t57 -196.5v-12zM271 466q-139 0 -154 -170h303q-4 85 -42 127.5t-107 42.5z
M362 604l-91 135l-91 -135h-65l133 191h47l132 -191h-65z" />
    <glyph glyph-name="edieresis" unicode="&#xeb;" horiz-adv-x="530" 
d="M485 242h-370q2 -104 45 -154.5t118 -50.5q60 0 97 31t40 87h59q-7 -81 -59.5 -124.5t-135.5 -43.5q-53 0 -95.5 17.5t-72.5 51t-45.5 83.5t-15.5 115q0 129 60 196.5t162 67.5q100 0 156 -67.5t57 -196.5v-12zM271 466q-139 0 -154 -170h303q-4 85 -42 127.5t-107 42.5z
M217 602h-68v101h68v-101zM404 602h-68v101h68v-101z" />
    <glyph glyph-name="igrave" unicode="&#xec;" horiz-adv-x="220" 
d="M142 0h-63v510h63v-510zM188 602h-61l-132 164h72z" />
    <glyph glyph-name="iacute" unicode="&#xed;" horiz-adv-x="220" 
d="M142 0h-63v510h63v-510zM237 766l-132 -164h-61l121 164h72z" />
    <glyph glyph-name="icircumflex" unicode="&#xee;" horiz-adv-x="220" 
d="M142 0h-63v510h63v-510zM202 604l-91 135l-91 -135h-65l133 191h47l132 -191h-65z" />
    <glyph glyph-name="idieresis" unicode="&#xef;" horiz-adv-x="220" 
d="M142 0h-63v510h63v-510zM57 602h-68v101h68v-101zM244 602h-68v101h68v-101z" />
    <glyph glyph-name="eth" unicode="&#xf0;" horiz-adv-x="560" 
d="M346 647q72 -61 118 -150t46 -207q0 -71 -16.5 -127t-46.5 -95t-73 -59.5t-95 -20.5q-47 0 -88.5 16t-73 49t-50 82.5t-18.5 116.5q0 68 19 118.5t50 83.5t71 49.5t82 16.5q54 0 94 -23t67 -62q-20 56 -55 100.5t-80 78.5l-105 -72l-21 43l84 57q-53 33 -112 50l32 49
q71 -23 131 -64l99 67l21 -42zM447 251q1 51 -11.5 91.5t-35 69t-54 43.5t-68.5 15q-32 0 -62 -12.5t-53 -38.5t-37 -67.5t-14 -98.5q0 -54 13.5 -94t36.5 -66t53.5 -39t65.5 -13q39 0 69.5 15.5t52 43.5t33 66.5t11.5 84.5z" />
    <glyph glyph-name="ntilde" unicode="&#xf1;" horiz-adv-x="542" 
d="M300 523q36 0 67.5 -12t54.5 -36t36 -60.5t13 -86.5v-328h-65v328q0 70 -33 106.5t-90 36.5t-96 -37.5t-45 -115.5v-318h-65v510h61l2 -83q25 49 67 72.5t93 23.5zM178 723q30 0 50.5 -10t42.5 -24q26 -17 42 -26.5t36 -9.5q48 0 48 61h55q2 -54 -23.5 -85.5t-76.5 -30.5
q-29 0 -51.5 11t-51.5 28q-21 13 -37 22t-35 9q-23 0 -35.5 -16t-12.5 -45h-56q-2 55 26 85.5t79 30.5z" />
    <glyph glyph-name="ograve" unicode="&#xf2;" horiz-adv-x="536" 
d="M268 518q49 0 89.5 -18.5t69.5 -53t44.5 -83.5t15.5 -110q0 -62 -15.5 -111t-44.5 -83.5t-69.5 -53t-89.5 -18.5q-50 0 -90.5 18.5t-69 53t-44 83.5t-15.5 111q0 61 15.5 110t44 83.5t69 53t90.5 18.5zM268 466q-77 0 -115 -57.5t-38 -155.5q0 -100 38 -157t115 -57
q75 0 114 57t39 157q0 98 -39 155.5t-114 57.5zM345 602h-61l-132 164h72z" />
    <glyph glyph-name="oacute" unicode="&#xf3;" horiz-adv-x="536" 
d="M268 518q49 0 89.5 -18.5t69.5 -53t44.5 -83.5t15.5 -110q0 -62 -15.5 -111t-44.5 -83.5t-69.5 -53t-89.5 -18.5q-50 0 -90.5 18.5t-69 53t-44 83.5t-15.5 111q0 61 15.5 110t44 83.5t69 53t90.5 18.5zM268 466q-77 0 -115 -57.5t-38 -155.5q0 -100 38 -157t115 -57
q75 0 114 57t39 157q0 98 -39 155.5t-114 57.5zM394 766l-132 -164h-61l121 164h72z" />
    <glyph glyph-name="ocircumflex" unicode="&#xf4;" horiz-adv-x="536" 
d="M268 518q49 0 89.5 -18.5t69.5 -53t44.5 -83.5t15.5 -110q0 -62 -15.5 -111t-44.5 -83.5t-69.5 -53t-89.5 -18.5q-50 0 -90.5 18.5t-69 53t-44 83.5t-15.5 111q0 61 15.5 110t44 83.5t69 53t90.5 18.5zM268 466q-77 0 -115 -57.5t-38 -155.5q0 -100 38 -157t115 -57
q75 0 114 57t39 157q0 98 -39 155.5t-114 57.5zM359 604l-91 135l-91 -135h-65l133 191h47l132 -191h-65z" />
    <glyph glyph-name="otilde" unicode="&#xf5;" horiz-adv-x="536" 
d="M268 518q49 0 89.5 -18.5t69.5 -53t44.5 -83.5t15.5 -110q0 -62 -15.5 -111t-44.5 -83.5t-69.5 -53t-89.5 -18.5q-50 0 -90.5 18.5t-69 53t-44 83.5t-15.5 111q0 61 15.5 110t44 83.5t69 53t90.5 18.5zM268 466q-77 0 -115 -57.5t-38 -155.5q0 -100 38 -157t115 -57
q75 0 114 57t39 157q0 98 -39 155.5t-114 57.5zM176 723q30 0 50.5 -10t42.5 -24q26 -17 42 -26.5t36 -9.5q48 0 48 61h55q2 -54 -23.5 -85.5t-76.5 -30.5q-29 0 -51.5 11t-51.5 28q-21 13 -37 22t-35 9q-23 0 -35.5 -16t-12.5 -45h-56q-2 55 26 85.5t79 30.5z" />
    <glyph glyph-name="odieresis" unicode="&#xf6;" horiz-adv-x="536" 
d="M268 518q49 0 89.5 -18.5t69.5 -53t44.5 -83.5t15.5 -110q0 -62 -15.5 -111t-44.5 -83.5t-69.5 -53t-89.5 -18.5q-50 0 -90.5 18.5t-69 53t-44 83.5t-15.5 111q0 61 15.5 110t44 83.5t69 53t90.5 18.5zM268 466q-77 0 -115 -57.5t-38 -155.5q0 -100 38 -157t115 -57
q75 0 114 57t39 157q0 98 -39 155.5t-114 57.5zM214 602h-68v101h68v-101zM401 602h-68v101h68v-101z" />
    <glyph glyph-name="divide" unicode="&#xf7;" 
 />
    <glyph glyph-name="oslash" unicode="&#xf8;" horiz-adv-x="546" 
d="M377 491q57 -28 88.5 -89t31.5 -153q0 -128 -59 -195t-165 -67q-30 0 -57 6l-51 -156h-54l56 173q-57 28 -87.5 88t-30.5 151q0 129 60 196.5t164 67.5q29 0 56 -6l48 149h54zM116 249q0 -133 70 -182l125 386q-15 4 -37 4q-77 0 -117.5 -52.5t-40.5 -155.5zM274 43
q76 0 116.5 51.5t40.5 154.5q0 138 -72 185l-126 -387q17 -4 41 -4z" />
    <glyph glyph-name="ugrave" unicode="&#xf9;" horiz-adv-x="543" 
d="M410 0q-4 45 -6 95q-24 -54 -67.5 -81t-98.5 -27q-36 0 -66 11.5t-52.5 35t-35 59.5t-12.5 86v331h65v-326q0 -74 32 -109.5t86 -35.5q31 0 58 12.5t46.5 37t30.5 62.5t11 89v270h65v-309q0 -58 1.5 -108.5t5.5 -92.5h-63zM347 602h-61l-132 164h72z" />
    <glyph glyph-name="uacute" unicode="&#xfa;" horiz-adv-x="543" 
d="M410 0q-4 45 -6 95q-24 -54 -67.5 -81t-98.5 -27q-36 0 -66 11.5t-52.5 35t-35 59.5t-12.5 86v331h65v-326q0 -74 32 -109.5t86 -35.5q31 0 58 12.5t46.5 37t30.5 62.5t11 89v270h65v-309q0 -58 1.5 -108.5t5.5 -92.5h-63zM396 766l-132 -164h-61l121 164h72z" />
    <glyph glyph-name="ucircumflex" unicode="&#xfb;" horiz-adv-x="543" 
d="M410 0q-4 45 -6 95q-24 -54 -67.5 -81t-98.5 -27q-36 0 -66 11.5t-52.5 35t-35 59.5t-12.5 86v331h65v-326q0 -74 32 -109.5t86 -35.5q31 0 58 12.5t46.5 37t30.5 62.5t11 89v270h65v-309q0 -58 1.5 -108.5t5.5 -92.5h-63zM361 604l-91 135l-91 -135h-65l133 191h47
l132 -191h-65z" />
    <glyph glyph-name="udieresis" unicode="&#xfc;" horiz-adv-x="543" 
d="M410 0q-4 45 -6 95q-24 -54 -67.5 -81t-98.5 -27q-36 0 -66 11.5t-52.5 35t-35 59.5t-12.5 86v331h65v-326q0 -74 32 -109.5t86 -35.5q31 0 58 12.5t46.5 37t30.5 62.5t11 89v270h65v-309q0 -58 1.5 -108.5t5.5 -92.5h-63zM216 602h-68v101h68v-101zM403 602h-68v101h68
v-101z" />
    <glyph glyph-name="yacute" unicode="&#xfd;" 
d="M474 510l-195 -545q-16 -43 -33 -75.5t-37.5 -54t-46 -32.5t-59.5 -11q-23 0 -39 3t-28 8v59q12 -7 26 -10.5t33 -3.5q45 0 74.5 26.5t48.5 84.5l10 31l-206 520h71l164 -441l147 441h70zM375 766l-132 -164h-61l121 164h72z" />
    <glyph glyph-name="thorn" unicode="&#xfe;" horiz-adv-x="570" 
d="M316 520q93 -1 148 -67t55 -198q0 -67 -14.5 -117t-41 -83t-64 -50t-83.5 -17q-59 0 -104 25t-71 79v-328h-64v988h64v-340q26 56 70.5 82.5t104.5 25.5zM302 41q72 0 111.5 54t39.5 160t-39.5 159t-111.5 53q-70 0 -115.5 -51.5t-45.5 -160.5q0 -55 12 -95.5t33.5 -66.5
t51 -39t64.5 -13z" />
    <glyph glyph-name="ydieresis" unicode="&#xff;" 
d="M474 510l-195 -545q-16 -43 -33 -75.5t-37.5 -54t-46 -32.5t-59.5 -11q-23 0 -39 3t-28 8v59q12 -7 26 -10.5t33 -3.5q45 0 74.5 26.5t48.5 84.5l10 31l-206 520h71l164 -441l147 441h70zM195 602h-68v101h68v-101zM382 602h-68v101h68v-101z" />
    <glyph glyph-name="Amacron" unicode="&#x100;" horiz-adv-x="658" 
d="M494 191h-333l-71 -191h-73l280 712h67l273 -712h-73zM473 249l-144 392l-146 -392h290zM513 795h-370v57h370v-57z" />
    <glyph glyph-name="amacron" unicode="&#x101;" horiz-adv-x="517" 
d="M389 0q-3 26 -4.5 53t-2.5 56q-26 -57 -75 -88t-109 -31q-30 0 -59 8.5t-51 26t-35.5 44.5t-13.5 65q0 33 11 57.5t30 43t44.5 30.5t54.5 20l201 54v5q0 61 -29.5 94t-91.5 33q-61 0 -90.5 -29.5t-30.5 -76.5h-63q1 69 46.5 112.5t138.5 43.5q90 0 137 -43.5t47 -133.5
v-143q0 -58 1.5 -108.5t5.5 -92.5h-62zM209 38q31 0 60 12t52 34t38.5 53t20.5 69v85l-186 -53q-36 -10 -62.5 -33.5t-26.5 -70.5q0 -26 8.5 -44t23 -29.5t33.5 -17t39 -5.5zM445 605h-370v57h370v-57z" />
    <glyph glyph-name="Abreve" unicode="&#x102;" horiz-adv-x="658" 
d="M494 191h-333l-71 -191h-73l280 712h67l273 -712h-73zM473 249l-144 392l-146 -392h290zM477 919q-1 -35 -13 -62t-32 -46t-47 -28.5t-58 -9.5q-32 0 -59 10t-47.5 28.5t-32 45.5t-12.5 62h55q3 -49 28.5 -72.5t67.5 -23.5t67 23.5t28 72.5h55z" />
    <glyph glyph-name="abreve" unicode="&#x103;" horiz-adv-x="517" 
d="M389 0q-3 26 -4.5 53t-2.5 56q-26 -57 -75 -88t-109 -31q-30 0 -59 8.5t-51 26t-35.5 44.5t-13.5 65q0 33 11 57.5t30 43t44.5 30.5t54.5 20l201 54v5q0 61 -29.5 94t-91.5 33q-61 0 -90.5 -29.5t-30.5 -76.5h-63q1 69 46.5 112.5t138.5 43.5q90 0 137 -43.5t47 -133.5
v-143q0 -58 1.5 -108.5t5.5 -92.5h-62zM209 38q31 0 60 12t52 34t38.5 53t20.5 69v85l-186 -53q-36 -10 -62.5 -33.5t-26.5 -70.5q0 -26 8.5 -44t23 -29.5t33.5 -17t39 -5.5zM409 729q-1 -35 -13 -62t-32 -46t-47 -28.5t-58 -9.5q-32 0 -59 10t-47.5 28.5t-32 45.5t-12.5 62
h55q3 -49 28.5 -72.5t67.5 -23.5t67 23.5t28 72.5h55z" />
    <glyph glyph-name="Aogonek" unicode="&#x104;" horiz-adv-x="658" 
d="M601 0q-35 -17 -55 -38.5t-20 -47.5q0 -20 13 -34.5t39 -14.5q20 0 41.5 8t42.5 22v-32q-11 -11 -35.5 -22t-55.5 -11q-41 0 -67.5 20.5t-26.5 59.5q0 19 7 33.5t19 26t27.5 20t31.5 15.5l-68 186h-333l-71 -191h-73l280 712h67l273 -712h-36zM473 249l-144 392
l-146 -392h290z" />
    <glyph glyph-name="aogonek" unicode="&#x105;" horiz-adv-x="517" 
d="M392 -145q20 0 41.5 8t42.5 22v-32q-11 -11 -35.5 -22t-55.5 -11q-41 0 -67.5 20.5t-26.5 59.5q0 21 9 36.5t23 27.5t31.5 21t34.5 15q-3 26 -4.5 53t-2.5 56q-26 -57 -75 -88t-109 -31q-30 0 -59 8.5t-51 26t-35.5 44.5t-13.5 65q0 33 11 57.5t30 43t44.5 30.5t54.5 20
l201 54v5q0 61 -29.5 94t-91.5 33q-61 0 -90.5 -29.5t-30.5 -76.5h-63q1 69 46.5 112.5t138.5 43.5q90 0 137 -43.5t47 -133.5v-143q0 -58 1.5 -108.5t5.5 -92.5h-13q-45 -17 -71.5 -41.5t-26.5 -54.5q0 -20 13 -34.5t39 -14.5zM380 291l-186 -53q-36 -10 -62.5 -33.5
t-26.5 -70.5q0 -26 8.5 -44t23 -29.5t33.5 -17t39 -5.5q31 0 60 12t52 34t38.5 53t20.5 69v85z" />
    <glyph glyph-name="Cacute" unicode="&#x106;" horiz-adv-x="647" 
d="M530 456q-2 43 -13.5 79t-34.5 62t-58.5 41t-84.5 15q-213 0 -213 -307q0 -153 57 -226t161 -73q93 0 137 49t48 132h67q-6 -118 -70 -179t-183 -61q-67 0 -120.5 21.5t-90.5 66t-56.5 111.5t-19.5 159q0 184 74.5 275t211.5 90q123 0 186 -68t69 -187h-67zM466 956
l-132 -164h-61l121 164h72z" />
    <glyph glyph-name="cacute" unicode="&#x107;" horiz-adv-x="516" 
d="M407 324q-4 63 -38 102.5t-100 39.5q-74 0 -113.5 -52.5t-39.5 -160.5t41.5 -161t115.5 -53q65 0 98 37.5t36 100.5h63q-5 -90 -56.5 -140t-140.5 -50q-49 0 -90 17t-71 50.5t-46.5 83t-16.5 115.5t16 115.5t45 82.5t69.5 50t89.5 17q91 0 143.5 -51.5t57.5 -142.5h-63z
M394 766l-132 -164h-61l121 164h72z" />
    <glyph glyph-name="Cdotaccent" unicode="&#x10a;" horiz-adv-x="647" 
d="M530 456q-2 43 -13.5 79t-34.5 62t-58.5 41t-84.5 15q-213 0 -213 -307q0 -153 57 -226t161 -73q93 0 137 49t48 132h67q-6 -118 -70 -179t-183 -61q-67 0 -120.5 21.5t-90.5 66t-56.5 111.5t-19.5 159q0 184 74.5 275t211.5 90q123 0 186 -68t69 -187h-67zM375 791h-68
v101h68v-101z" />
    <glyph glyph-name="cdotaccent" unicode="&#x10b;" horiz-adv-x="516" 
d="M407 324q-4 63 -38 102.5t-100 39.5q-74 0 -113.5 -52.5t-39.5 -160.5t41.5 -161t115.5 -53q65 0 98 37.5t36 100.5h63q-5 -90 -56.5 -140t-140.5 -50q-49 0 -90 17t-71 50.5t-46.5 83t-16.5 115.5t16 115.5t45 82.5t69.5 50t89.5 17q91 0 143.5 -51.5t57.5 -142.5h-63z
M303 601h-68v101h68v-101z" />
    <glyph glyph-name="Ccaron" unicode="&#x10c;" horiz-adv-x="647" 
d="M530 456q-2 43 -13.5 79t-34.5 62t-58.5 41t-84.5 15q-213 0 -213 -307q0 -153 57 -226t161 -73q93 0 137 49t48 132h67q-6 -118 -70 -179t-183 -61q-67 0 -120.5 21.5t-90.5 66t-56.5 111.5t-19.5 159q0 184 74.5 275t211.5 90q123 0 186 -68t69 -187h-67zM361 789h-47
l-133 191h65l91 -135l91 135h65z" />
    <glyph glyph-name="ccaron" unicode="&#x10d;" horiz-adv-x="516" 
d="M407 324q-4 63 -38 102.5t-100 39.5q-74 0 -113.5 -52.5t-39.5 -160.5t41.5 -161t115.5 -53q65 0 98 37.5t36 100.5h63q-5 -90 -56.5 -140t-140.5 -50q-49 0 -90 17t-71 50.5t-46.5 83t-16.5 115.5t16 115.5t45 82.5t69.5 50t89.5 17q91 0 143.5 -51.5t57.5 -142.5h-63z
M289 599h-47l-133 191h65l91 -135l91 135h65z" />
    <glyph glyph-name="Dcaron" unicode="&#x10e;" horiz-adv-x="670" 
d="M274 700q176 0 258.5 -91.5t82.5 -258.5q0 -178 -85.5 -264t-259.5 -86h-178v700h182zM270 58q133 0 204 70.5t71 221.5q0 143 -64 217.5t-207 74.5h-115v-584h111zM357 789h-47l-133 191h65l91 -135l91 135h65z" />
    <glyph glyph-name="dcaron" unicode="&#x10f;" horiz-adv-x="564" 
d="M431 0q-4 45 -6 94q-24 -56 -67.5 -82t-103.5 -25q-45 0 -82.5 16.5t-64.5 49.5t-42 83t-15 117q0 66 14.5 115.5t41.5 83t64.5 50t83.5 16.5q59 1 101.5 -24t66.5 -79v311h65v-525q0 -58 1.5 -108.5t5.5 -92.5h-63zM267 39q34 0 62.5 13t49 39t32 66.5t11.5 95.5
t-11.5 95t-32 66t-49 39t-62.5 13q-71 0 -111 -53.5t-40 -159.5t40 -160t111 -54zM639 700v-80l-59 -144h-29l9 136v88h79z" />
    <glyph glyph-name="Dcroat" unicode="&#x110;" horiz-adv-x="670" 
d="M274 700q176 0 258.5 -91.5t82.5 -258.5q0 -178 -85.5 -264t-259.5 -86h-178v324h-70v58h70v318h182zM270 58q133 0 204 70.5t71 221.5q0 143 -64 217.5t-207 74.5h-115v-260h215v-58h-215v-266h111z" />
    <glyph glyph-name="dcroat" unicode="&#x111;" horiz-adv-x="564" 
d="M487 574v-373q0 -58 1.5 -108.5t5.5 -92.5h-63q-4 45 -6 94q-24 -56 -67.5 -82t-103.5 -25q-45 0 -82.5 16.5t-64.5 49.5t-42 83t-15 117q0 66 14.5 115.5t41.5 83t64.5 50t83.5 16.5q59 1 101.5 -24t66.5 -79v159h-226v57h226v95h65v-95h79v-57h-79zM267 39
q34 0 62.5 13t49 39t32 66.5t11.5 95.5t-11.5 95t-32 66t-49 39t-62.5 13q-71 0 -111 -53.5t-40 -159.5t40 -160t111 -54z" />
    <glyph glyph-name="Emacron" unicode="&#x112;" horiz-adv-x="582" 
d="M159 642v-245h347v-58h-347v-281h370v-58h-437v700h437v-58h-370zM503 795h-370v57h370v-57z" />
    <glyph glyph-name="emacron" unicode="&#x113;" horiz-adv-x="530" 
d="M485 242h-370q2 -104 45 -154.5t118 -50.5q60 0 97 31t40 87h59q-7 -81 -59.5 -124.5t-135.5 -43.5q-53 0 -95.5 17.5t-72.5 51t-45.5 83.5t-15.5 115q0 129 60 196.5t162 67.5q100 0 156 -67.5t57 -196.5v-12zM271 466q-139 0 -154 -170h303q-4 85 -42 127.5t-107 42.5z
M456 605h-370v57h370v-57z" />
    <glyph glyph-name="Edotaccent" unicode="&#x116;" horiz-adv-x="582" 
d="M159 642v-245h347v-58h-347v-281h370v-58h-437v700h437v-58h-370zM353 791h-68v101h68v-101z" />
    <glyph glyph-name="edotaccent" unicode="&#x117;" horiz-adv-x="530" 
d="M485 242h-370q2 -104 45 -154.5t118 -50.5q60 0 97 31t40 87h59q-7 -81 -59.5 -124.5t-135.5 -43.5q-53 0 -95.5 17.5t-72.5 51t-45.5 83.5t-15.5 115q0 129 60 196.5t162 67.5q100 0 156 -67.5t57 -196.5v-12zM271 466q-139 0 -154 -170h303q-4 85 -42 127.5t-107 42.5z
M306 601h-68v101h68v-101z" />
    <glyph glyph-name="Eogonek" unicode="&#x118;" horiz-adv-x="582" 
d="M159 642v-245h347v-58h-347v-281h370v-58h-141q-45 -17 -71.5 -41.5t-26.5 -54.5q0 -20 13 -34.5t39 -14.5q20 0 41.5 8t42.5 22v-32q-11 -11 -35.5 -22t-55.5 -11q-41 0 -67.5 20.5t-26.5 59.5q0 21 9 36.5t23 27.5t31.5 21t35.5 15h-248v700h437v-58h-370z" />
    <glyph glyph-name="eogonek" unicode="&#x119;" horiz-adv-x="530" 
d="M485 242h-370q2 -104 45 -154.5t118 -50.5q60 0 97 31t40 87h59q-6 -73 -50 -115.5t-113 -50.5q-36 -17 -57.5 -39.5t-21.5 -48.5q0 -20 13 -34.5t39 -14.5q20 0 41.5 8t42.5 22v-32q-11 -11 -35.5 -22t-55.5 -11q-41 0 -67.5 20.5t-26.5 59.5q0 35 23 56t53 35
q-98 6 -154 73.5t-55 192.5q0 129 60 196.5t162 67.5q100 0 156 -67.5t57 -196.5v-12zM420 296q-4 85 -42 127.5t-107 42.5q-139 0 -154 -170h303z" />
    <glyph glyph-name="Ecaron" unicode="&#x11a;" horiz-adv-x="582" 
d="M159 642v-245h347v-58h-347v-281h370v-58h-437v700h437v-58h-370zM339 789h-47l-133 191h65l91 -135l91 135h65z" />
    <glyph glyph-name="ecaron" unicode="&#x11b;" horiz-adv-x="530" 
d="M485 242h-370q2 -104 45 -154.5t118 -50.5q60 0 97 31t40 87h59q-7 -81 -59.5 -124.5t-135.5 -43.5q-53 0 -95.5 17.5t-72.5 51t-45.5 83.5t-15.5 115q0 129 60 196.5t162 67.5q100 0 156 -67.5t57 -196.5v-12zM271 466q-139 0 -154 -170h303q-4 85 -42 127.5t-107 42.5z
M292 599h-47l-133 191h65l91 -135l91 135h65z" />
    <glyph glyph-name="Gbreve" unicode="&#x11e;" horiz-adv-x="672" 
d="M624 334q-3 -171 -73 -258.5t-201 -87.5q-66 0 -120 22.5t-93 67.5t-60.5 112t-21.5 156q0 90 21.5 158.5t61 114.5t94.5 69t122 23q57 0 102.5 -16.5t78.5 -47t52.5 -73t23.5 -94.5h-69q-3 37 -16.5 68.5t-37 55t-58 36.5t-80.5 13q-106 0 -165.5 -75t-59.5 -232
q0 -153 60.5 -226.5t164.5 -73.5q102 0 151.5 66.5t52.5 194.5h-229v56h299v-29zM497 919q-1 -35 -13 -62t-32 -46t-47 -28.5t-58 -9.5q-32 0 -59 10t-47.5 28.5t-32 45.5t-12.5 62h55q3 -49 28.5 -72.5t67.5 -23.5t67 23.5t28 72.5h55z" />
    <glyph glyph-name="gbreve" unicode="&#x11f;" horiz-adv-x="564" 
d="M488 510v-514q0 -116 -53 -167t-156 -51q-46 0 -83.5 10t-64.5 30t-42 50.5t-16 71.5h65q8 -110 140 -110q75 0 110 38t35 126v105q-23 -55 -66 -80.5t-103 -25.5q-45 0 -82.5 16t-64.5 48.5t-42 81t-15 114.5t15 115.5t42 83t64.5 50t82.5 16.5q122 2 170 -107l1 99h63z
M267 46q34 0 62.5 11.5t49.5 36t32.5 64t11.5 95.5q0 55 -11.5 95t-32.5 66t-49.5 38t-62.5 12q-72 0 -111 -52t-39 -159q0 -106 39 -156.5t111 -50.5zM431 729q-1 -35 -13 -62t-32 -46t-47 -28.5t-58 -9.5q-32 0 -59 10t-47.5 28.5t-32 45.5t-12.5 62h55q3 -49 28.5 -72.5
t67.5 -23.5t67 23.5t28 72.5h55z" />
    <glyph glyph-name="Gdotaccent" unicode="&#x120;" horiz-adv-x="672" 
d="M624 334q-3 -171 -73 -258.5t-201 -87.5q-66 0 -120 22.5t-93 67.5t-60.5 112t-21.5 156q0 90 21.5 158.5t61 114.5t94.5 69t122 23q57 0 102.5 -16.5t78.5 -47t52.5 -73t23.5 -94.5h-69q-3 37 -16.5 68.5t-37 55t-58 36.5t-80.5 13q-106 0 -165.5 -75t-59.5 -232
q0 -153 60.5 -226.5t164.5 -73.5q102 0 151.5 66.5t52.5 194.5h-229v56h299v-29zM383 791h-68v101h68v-101z" />
    <glyph glyph-name="gdotaccent" unicode="&#x121;" horiz-adv-x="564" 
d="M488 510v-514q0 -116 -53 -167t-156 -51q-46 0 -83.5 10t-64.5 30t-42 50.5t-16 71.5h65q8 -110 140 -110q75 0 110 38t35 126v105q-23 -55 -66 -80.5t-103 -25.5q-45 0 -82.5 16t-64.5 48.5t-42 81t-15 114.5t15 115.5t42 83t64.5 50t82.5 16.5q122 2 170 -107l1 99h63z
M267 46q34 0 62.5 11.5t49.5 36t32.5 64t11.5 95.5q0 55 -11.5 95t-32.5 66t-49.5 38t-62.5 12q-72 0 -111 -52t-39 -159q0 -106 39 -156.5t111 -50.5zM317 601h-68v101h68v-101z" />
    <glyph glyph-name="Gcommaaccent" unicode="&#x122;" horiz-adv-x="672" 
d="M624 334q-3 -171 -73 -258.5t-201 -87.5q-66 0 -120 22.5t-93 67.5t-60.5 112t-21.5 156q0 90 21.5 158.5t61 114.5t94.5 69t122 23q57 0 102.5 -16.5t78.5 -47t52.5 -73t23.5 -94.5h-69q-3 37 -16.5 68.5t-37 55t-58 36.5t-80.5 13q-106 0 -165.5 -75t-59.5 -232
q0 -153 60.5 -226.5t164.5 -73.5q102 0 151.5 66.5t52.5 194.5h-229v56h299v-29zM393 -90v-67l-50 -133h-31l13 124v76h68z" />
    <glyph glyph-name="gcommaaccent" unicode="&#x123;" horiz-adv-x="564" 
d="M488 510v-514q0 -116 -53 -167t-156 -51q-46 0 -83.5 10t-64.5 30t-42 50.5t-16 71.5h65q8 -110 140 -110q75 0 110 38t35 126v105q-23 -55 -66 -80.5t-103 -25.5q-45 0 -82.5 16t-64.5 48.5t-42 81t-15 114.5t15 115.5t42 83t64.5 50t82.5 16.5q122 2 170 -107l1 99h63z
M267 46q34 0 62.5 11.5t49.5 36t32.5 64t11.5 95.5q0 55 -11.5 95t-32.5 66t-49.5 38t-62.5 12q-72 0 -111 -52t-39 -159q0 -106 39 -156.5t111 -50.5zM242.009 599.994v66.9961l49.9971 132.992h30.998l-12.999 -123.992v-75.9961h-67.9961z" />
    <glyph glyph-name="Hbar" unicode="&#x126;" horiz-adv-x="687" 
d="M665 459h-70v-459h-67v328h-369v-328h-67v459h-70v53h70v188h67v-188h369v188h67v-188h70v-53zM528 459h-369v-73h369v73z" />
    <glyph glyph-name="hbar" unicode="&#x127;" horiz-adv-x="535" 
d="M292 523q36 0 67.5 -12t54.5 -36t36 -60.5t13 -86.5v-328h-65v328q0 70 -33 106.5t-90 36.5q-60 0 -100.5 -43.5t-40.5 -132.5v-295h-65v574h-69v57h69v97h65v-97h254v-57h-254v-148q24 49 65 73t93 24z" />
    <glyph glyph-name="Imacron" unicode="&#x12a;" horiz-adv-x="250" 
d="M159 700v-700h-67v700h67zM309 795h-370v57h370v-57z" />
    <glyph glyph-name="imacron" unicode="&#x12b;" horiz-adv-x="220" 
d="M142 0h-63v510h63v-510zM258.596 605h-295.996v57h295.996v-57z" />
    <glyph glyph-name="Iogonek" unicode="&#x12e;" horiz-adv-x="250" 
d="M107 -145q20 0 41.5 8t42.5 22v-32q-11 -11 -35.5 -22t-55.5 -11q-41 0 -67.5 20.5t-26.5 59.5q0 21 9 36.5t23 27.5t31.5 21t35.5 15h-13v700h67v-700h-6q-45 -17 -71.5 -41.5t-26.5 -54.5q0 -20 13 -34.5t39 -14.5z" />
    <glyph glyph-name="iogonek" unicode="&#x12f;" horiz-adv-x="220" 
d="M146 601h-68v101h68v-101zM87 -145q20 0 41.5 8t42.5 22v-32q-11 -11 -35.5 -22t-55.5 -11q-41 0 -67.5 20.5t-26.5 59.5q0 21 9 36.5t23 27.5t31.5 21t35.5 15h-6v510h63v-510h-9q-45 -17 -71.5 -41.5t-26.5 -54.5q0 -20 13 -34.5t39 -14.5z" />
    <glyph glyph-name="Idotaccent" unicode="&#x130;" horiz-adv-x="250" 
d="M159 700v-700h-67v700h67zM159 791h-68v101h68v-101z" />
    <glyph glyph-name="dotlessi" unicode="&#x131;" horiz-adv-x="220" 
d="M142 0h-63v510h63v-510z" />
    <glyph glyph-name="IJ" unicode="&#x132;" horiz-adv-x="816" 
d="M159 700v-700h-67v700h67zM729 216q0 -112 -56.5 -169.5t-163.5 -57.5q-48 0 -89.5 12.5t-71.5 39.5t-47.5 70t-18.5 105h68q1 -90 43 -129.5t116 -39.5q78 0 115.5 41.5t37.5 126.5v485h67v-484z" />
    <glyph glyph-name="ij" unicode="&#x133;" horiz-adv-x="444" 
d="M145 622h-68v105h68v-105zM144 0h-65v510h65v-510zM368 622h-69v105h69v-105zM366 -25q0 -94 -43.5 -143t-113.5 -49q-23 0 -37.5 3t-25.5 8v56q11 -5 23.5 -8.5t32.5 -3.5q46 0 72.5 34t26.5 101v537h65v-535z" />
    <glyph glyph-name="Kcommaaccent" unicode="&#x136;" horiz-adv-x="605" 
d="M595 0h-78l-236 388l-122 -131v-257h-67v700h67v-359l328 359h86l-248 -265zM353 -90v-67l-50 -133h-31l13 124v76h68z" />
    <glyph glyph-name="kcommaaccent" unicode="&#x137;" horiz-adv-x="486" 
d="M474 0h-71l-156 274l-106 -122v-152h-64v728h64v-496l232 278h79l-165 -190zM284 -90v-67l-50 -133h-31l13 124v76h68z" />
    <glyph glyph-name="Lacute" unicode="&#x139;" horiz-adv-x="548" 
d="M525 58v-58h-433v700h67v-642h366zM387 956l-132 -164h-61l121 164h72z" />
    <glyph glyph-name="lacute" unicode="&#x13a;" horiz-adv-x="222" 
d="M143 728v-728h-64v728h64zM234 977l-132 -164h-61l121 164h72z" />
    <glyph glyph-name="Lcommaaccent" unicode="&#x13b;" horiz-adv-x="548" 
d="M525 58v-58h-433v700h67v-642h366zM301 -90v-67l-50 -133h-31l13 124v76h68z" />
    <glyph glyph-name="lcommaaccent" unicode="&#x13c;" horiz-adv-x="222" 
d="M143 728v-728h-64v728h64zM150 -90v-67l-50 -133h-31l13 124v76h68z" />
    <glyph glyph-name="Lcaron" unicode="&#x13d;" horiz-adv-x="548" 
d="M525 58v-58h-433v700h67v-642h366zM451 700v-80l-59 -144h-29l9 136v88h79z" />
    <glyph glyph-name="lcaron" unicode="&#x13e;" horiz-adv-x="222" 
d="M143 728v-728h-64v728h64zM295 700v-80l-59 -144h-29l9 136v88h79z" />
    <glyph glyph-name="Ldot" unicode="&#x13f;" horiz-adv-x="548" 
d="M525 58v-58h-433v700h67v-642h366zM491.792 434.009v-87.1201h-84.4521v87.1201h84.4521z" />
    <glyph glyph-name="ldot" unicode="&#x140;" horiz-adv-x="222" 
d="M143 728v-728h-64v728h64zM318 424v-98h-95v98h95z" />
    <glyph glyph-name="Lslash" unicode="&#x141;" horiz-adv-x="623" 
d="M600 58v-58h-433v283l-142 -57v56l142 58v360h67v-333l193 78v-57l-193 -78v-252h366z" />
    <glyph glyph-name="lslash" unicode="&#x142;" horiz-adv-x="336" 
d="M306 403l-107 -37v-366h-64v343l-104 -36v56l104 36v329h64v-308l107 37v-54z" />
    <glyph glyph-name="Nacute" unicode="&#x143;" horiz-adv-x="691" 
d="M600 700v-701h-66l-375 583v-582h-67v700h65l376 -590v590h67zM471 956l-132 -164h-61l121 164h72z" />
    <glyph glyph-name="nacute" unicode="&#x144;" horiz-adv-x="542" 
d="M300 523q36 0 67.5 -12t54.5 -36t36 -60.5t13 -86.5v-328h-65v328q0 70 -33 106.5t-90 36.5t-96 -37.5t-45 -115.5v-318h-65v510h61l2 -83q25 49 67 72.5t93 23.5zM396 766l-132 -164h-61l121 164h72z" />
    <glyph glyph-name="Ncommaaccent" unicode="&#x145;" horiz-adv-x="691" 
d="M600 700v-701h-66l-375 583v-582h-67v700h65l376 -590v590h67zM385 -90v-67l-50 -133h-31l13 124v76h68z" />
    <glyph glyph-name="ncommaaccent" unicode="&#x146;" horiz-adv-x="542" 
d="M300 523q36 0 67.5 -12t54.5 -36t36 -60.5t13 -86.5v-328h-65v328q0 70 -33 106.5t-90 36.5t-96 -37.5t-45 -115.5v-318h-65v510h61l2 -83q25 49 67 72.5t93 23.5zM310 -90v-67l-50 -133h-31l13 124v76h68z" />
    <glyph glyph-name="Ncaron" unicode="&#x147;" horiz-adv-x="691" 
d="M600 700v-701h-66l-375 583v-582h-67v700h65l376 -590v590h67zM366 789h-47l-133 191h65l91 -135l91 135h65z" />
    <glyph glyph-name="ncaron" unicode="&#x148;" horiz-adv-x="542" 
d="M300 523q36 0 67.5 -12t54.5 -36t36 -60.5t13 -86.5v-328h-65v328q0 70 -33 106.5t-90 36.5t-96 -37.5t-45 -115.5v-318h-65v510h61l2 -83q25 49 67 72.5t93 23.5zM291 599h-47l-133 191h65l91 -135l91 135h65z" />
    <glyph glyph-name="Eng" unicode="&#x14a;" horiz-adv-x="691" 
d="M600 700v-749q0 -57 -16 -99t-45.5 -70t-71 -42t-93.5 -14q-47 0 -87.5 10.5t-71.5 32.5t-49.5 55.5t-19.5 79.5h66q2 -59 47 -89.5t115 -30.5q78 0 118.5 41t40.5 126v50l-374 581v-582h-67v700h65l376 -590v590h67z" />
    <glyph glyph-name="eng" unicode="&#x14b;" horiz-adv-x="541" 
d="M298 523q37 0 69 -11.5t54.5 -36t35.5 -62.5t13 -92v-346q0 -94 -43 -143t-115 -49q-22 0 -36.5 3t-25.5 8v58q11 -6 23 -9.5t31 -3.5q50 0 75.5 34t25.5 100v343q0 82 -33.5 118.5t-90.5 36.5q-63 0 -101.5 -43t-39.5 -133v-295h-63v510h60l2 -82q23 48 64.5 71.5
t94.5 23.5z" />
    <glyph glyph-name="Omacron" unicode="&#x14c;" horiz-adv-x="705" 
d="M353 719q68 0 123 -23.5t93.5 -70t59.5 -115.5t21 -160t-21 -160t-59.5 -115.5t-93.5 -70t-123 -23.5t-123 23.5t-94 70t-60 115.5t-21 160t21 160t60 115.5t94 70t123 23.5zM353 661q-108 0 -168 -77t-60 -234t60 -234t168 -77q109 0 168 76.5t59 234.5t-59 234.5
t-168 76.5zM537 795h-370v57h370v-57z" />
    <glyph glyph-name="omacron" unicode="&#x14d;" horiz-adv-x="536" 
d="M268 518q49 0 89.5 -18.5t69.5 -53t44.5 -83.5t15.5 -110q0 -62 -15.5 -111t-44.5 -83.5t-69.5 -53t-89.5 -18.5q-50 0 -90.5 18.5t-69 53t-44 83.5t-15.5 111q0 61 15.5 110t44 83.5t69 53t90.5 18.5zM268 466q-77 0 -115 -57.5t-38 -155.5q0 -100 38 -157t115 -57
q75 0 114 57t39 157q0 98 -39 155.5t-114 57.5zM453 605h-370v57h370v-57z" />
    <glyph glyph-name="Ohungarumlaut" unicode="&#x150;" horiz-adv-x="705" 
d="M353 719q68 0 123 -23.5t93.5 -70t59.5 -115.5t21 -160t-21 -160t-59.5 -115.5t-93.5 -70t-123 -23.5t-123 23.5t-94 70t-60 115.5t-21 160t21 160t60 115.5t94 70t123 23.5zM353 661q-108 0 -168 -77t-60 -234t60 -234t168 -77q109 0 168 76.5t59 234.5t-59 234.5
t-168 76.5zM422 956l-132 -164h-61l121 164h72zM570 956l-132 -164h-61l121 164h72z" />
    <glyph glyph-name="ohungarumlaut" unicode="&#x151;" horiz-adv-x="536" 
d="M268 518q49 0 89.5 -18.5t69.5 -53t44.5 -83.5t15.5 -110q0 -62 -15.5 -111t-44.5 -83.5t-69.5 -53t-89.5 -18.5q-50 0 -90.5 18.5t-69 53t-44 83.5t-15.5 111q0 61 15.5 110t44 83.5t69 53t90.5 18.5zM268 466q-77 0 -115 -57.5t-38 -155.5q0 -100 38 -157t115 -57
q75 0 114 57t39 157q0 98 -39 155.5t-114 57.5zM338 766l-132 -164h-61l121 164h72zM486 766l-132 -164h-61l121 164h72z" />
    <glyph glyph-name="OE" unicode="&#x152;" horiz-adv-x="1072" 
d="M649 642v-245h347v-58h-347v-281h370v-58h-437v102q-68 -121 -228 -121q-143 0 -220.5 93t-77.5 276t77.5 276t220.5 93q160 0 228 -121v102h437v-58h-370zM354 39q111 0 169 76.5t58 234.5t-58 234.5t-169 76.5q-110 0 -169 -76.5t-59 -234.5t59 -234.5t169 -76.5z" />
    <glyph glyph-name="oe" unicode="&#x153;" horiz-adv-x="895" 
d="M851 243h-369q1 -104 44 -154.5t118 -50.5q59 0 96 28t44 89h59q-9 -84 -62.5 -126t-132.5 -42q-72 -1 -121.5 30t-75.5 91q-49 -121 -186 -121q-102 -1 -158.5 66t-56.5 194q0 134 57.5 202t157.5 68q66 0 113 -30.5t71 -90.5q26 61 75 91t115 30q47 0 86 -15t67 -46.5
t43.5 -79.5t15.5 -114v-19zM267 39q73 0 112.5 52.5t39.5 155.5q0 110 -40 164t-112 54q-74 0 -114 -54t-40 -164q0 -103 39.5 -155.5t114.5 -52.5zM638 465q-66 0 -105.5 -40.5t-48.5 -129.5h305q-5 89 -45.5 129.5t-105.5 40.5z" />
    <glyph glyph-name="Racute" unicode="&#x154;" horiz-adv-x="626" 
d="M582 0h-75l-153 290h-195v-290h-67v700h251q109 0 165.5 -55.5t56.5 -151.5q0 -76 -36.5 -126.5t-108.5 -67.5zM342 347q73 0 115 37t42 109t-41.5 110.5t-114.5 38.5h-184v-295h183zM431 956l-132 -164h-61l121 164h72z" />
    <glyph glyph-name="racute" unicode="&#x155;" horiz-adv-x="348" 
d="M272 521q18 0 31 -3t21 -7l-1 -58q-9 5 -22.5 9.5t-32.5 4.5q-55 0 -91 -44.5t-37 -128.5v-294h-63v510h60l1 -87q19 48 53.5 73t80.5 25zM325 766l-132 -164h-61l121 164h72z" />
    <glyph glyph-name="Rcommaaccent" unicode="&#x156;" horiz-adv-x="626" 
d="M582 0h-75l-153 290h-195v-290h-67v700h251q109 0 165.5 -55.5t56.5 -151.5q0 -76 -36.5 -126.5t-108.5 -67.5zM342 347q73 0 115 37t42 109t-41.5 110.5t-114.5 38.5h-184v-295h183zM345 -90v-67l-50 -133h-31l13 124v76h68z" />
    <glyph glyph-name="rcommaaccent" unicode="&#x157;" horiz-adv-x="348" 
d="M272 521q18 0 31 -3t21 -7l-1 -58q-9 5 -22.5 9.5t-32.5 4.5q-55 0 -91 -44.5t-37 -128.5v-294h-63v510h60l1 -87q19 48 53.5 73t80.5 25zM211 -90v-67l-50 -133h-31l13 124v76h68z" />
    <glyph glyph-name="Rcaron" unicode="&#x158;" horiz-adv-x="626" 
d="M582 0h-75l-153 290h-195v-290h-67v700h251q109 0 165.5 -55.5t56.5 -151.5q0 -76 -36.5 -126.5t-108.5 -67.5zM342 347q73 0 115 37t42 109t-41.5 110.5t-114.5 38.5h-184v-295h183zM326 789h-47l-133 191h65l91 -135l91 135h65z" />
    <glyph glyph-name="rcaron" unicode="&#x159;" horiz-adv-x="348" 
d="M272 521q18 0 31 -3t21 -7l-1 -58q-9 5 -22.5 9.5t-32.5 4.5q-55 0 -91 -44.5t-37 -128.5v-294h-63v510h60l1 -87q19 48 53.5 73t80.5 25zM220 599h-47l-133 191h65l91 -135l91 135h65z" />
    <glyph glyph-name="Sacute" unicode="&#x15a;" horiz-adv-x="614" 
d="M301 708q60 0 104.5 -15t74.5 -41t45 -62.5t17 -79.5h-68q0 30 -10.5 55.5t-31.5 44t-53.5 29.5t-77.5 11q-78 0 -123.5 -34t-45.5 -97q0 -35 14.5 -56t39.5 -33.5t59 -19.5t73 -13q49 -8 93.5 -18.5t79 -32t55 -57.5t20.5 -93q0 -99 -63.5 -153.5t-187.5 -54.5
q-58 0 -106.5 13.5t-83.5 41.5t-55.5 71.5t-22.5 103.5h69q1 -46 15.5 -78.5t40 -53.5t61.5 -30.5t81 -9.5q94 0 140 37.5t46 106.5q0 42 -16.5 68t-45 41t-66.5 23t-80 14q-46 7 -87 17t-71.5 28.5t-48.5 50t-18 81.5q0 93 61.5 144t172.5 51zM438 956l-132 -164h-61
l121 164h72z" />
    <glyph glyph-name="sacute" unicode="&#x15b;" horiz-adv-x="489" 
d="M241 519q87 0 134.5 -41t49.5 -110h-61q-2 44 -32.5 72t-90.5 28q-51 0 -85 -23t-34 -69q0 -22 9.5 -36t26.5 -23t41.5 -14t54.5 -9q42 -5 77 -13t60.5 -23.5t39.5 -41.5t14 -67q0 -39 -14 -69t-39 -50.5t-60.5 -31t-78.5 -10.5q-42 0 -79.5 10.5t-66 32t-46 54
t-18.5 76.5h62q1 -30 13 -53t32.5 -38t46.5 -22.5t56 -7.5q56 0 93 26t37 78q0 26 -10.5 42t-29.5 26t-46 15t-59 10q-36 4 -68 12t-56.5 23t-39 39t-14.5 61q0 35 13.5 62.5t37.5 46t57 28.5t73 10zM366 766l-132 -164h-61l121 164h72z" />
    <glyph glyph-name="Scedilla" unicode="&#x15e;" horiz-adv-x="614" 
d="M566 196q0 -93 -56 -146.5t-165 -60.5l-34 -48q16 9 38 9q33 0 57.5 -19.5t24.5 -54.5q0 -38 -28 -60.5t-74 -22.5q-23 0 -42 5.5t-36 13.5l2 36q35 -20 71 -20q29 0 43.5 12.5t14.5 32.5t-12.5 31t-34.5 11q-17 0 -29 -7t-20 -17l-33 18l50 79q-56 1 -102 15.5
t-79.5 42.5t-53 70.5t-21.5 101.5h69q1 -46 15.5 -78.5t40 -53.5t61.5 -30.5t81 -9.5q94 0 140 37.5t46 106.5q0 42 -16.5 68t-45 41t-66.5 23t-80 14q-46 7 -87 17t-71.5 28.5t-48.5 50t-18 81.5q0 93 61.5 144t172.5 51q60 0 104.5 -15t74.5 -41t45 -62.5t17 -79.5h-68
q0 30 -10.5 55.5t-31.5 44t-53.5 29.5t-77.5 11q-78 0 -123.5 -34t-45.5 -97q0 -35 14.5 -56t39.5 -33.5t59 -19.5t73 -13q49 -8 93.5 -18.5t79 -32t55 -57.5t20.5 -93z" />
    <glyph glyph-name="scedilla" unicode="&#x15f;" horiz-adv-x="489" 
d="M275 -50q33 0 57.5 -19.5t24.5 -54.5q0 -38 -28 -60.5t-74 -22.5q-23 0 -42 5.5t-36 13.5l2 36q35 -20 71 -20q29 0 43.5 12.5t14.5 32.5t-12.5 31t-34.5 11q-17 0 -29 -7t-20 -17l-33 18l50 80q-38 3 -71.5 14.5t-58.5 33t-40 52.5t-16 72h62q1 -30 13 -53t32.5 -38
t46.5 -22.5t56 -7.5q56 0 93 26t37 78q0 26 -10.5 42t-29.5 26t-46 15t-59 10q-36 4 -68 12t-56.5 23t-39 39t-14.5 61q0 35 13.5 62.5t37.5 46t57 28.5t73 10q87 0 134.5 -41t49.5 -110h-61q-2 44 -32.5 72t-90.5 28q-51 0 -85 -23t-34 -69q0 -22 9.5 -36t26.5 -23
t41.5 -14t54.5 -9q42 -5 77 -13t60.5 -23.5t39.5 -41.5t14 -67q0 -75 -47.5 -115.5t-126.5 -45.5l-34 -47q16 9 38 9z" />
    <glyph glyph-name="Scaron" unicode="&#x160;" horiz-adv-x="614" 
d="M301 708q60 0 104.5 -15t74.5 -41t45 -62.5t17 -79.5h-68q0 30 -10.5 55.5t-31.5 44t-53.5 29.5t-77.5 11q-78 0 -123.5 -34t-45.5 -97q0 -35 14.5 -56t39.5 -33.5t59 -19.5t73 -13q49 -8 93.5 -18.5t79 -32t55 -57.5t20.5 -93q0 -99 -63.5 -153.5t-187.5 -54.5
q-58 0 -106.5 13.5t-83.5 41.5t-55.5 71.5t-22.5 103.5h69q1 -46 15.5 -78.5t40 -53.5t61.5 -30.5t81 -9.5q94 0 140 37.5t46 106.5q0 42 -16.5 68t-45 41t-66.5 23t-80 14q-46 7 -87 17t-71.5 28.5t-48.5 50t-18 81.5q0 93 61.5 144t172.5 51zM333 789h-47l-133 191h65
l91 -135l91 135h65z" />
    <glyph glyph-name="scaron" unicode="&#x161;" horiz-adv-x="489" 
d="M241 519q87 0 134.5 -41t49.5 -110h-61q-2 44 -32.5 72t-90.5 28q-51 0 -85 -23t-34 -69q0 -22 9.5 -36t26.5 -23t41.5 -14t54.5 -9q42 -5 77 -13t60.5 -23.5t39.5 -41.5t14 -67q0 -39 -14 -69t-39 -50.5t-60.5 -31t-78.5 -10.5q-42 0 -79.5 10.5t-66 32t-46 54
t-18.5 76.5h62q1 -30 13 -53t32.5 -38t46.5 -22.5t56 -7.5q56 0 93 26t37 78q0 26 -10.5 42t-29.5 26t-46 15t-59 10q-36 4 -68 12t-56.5 23t-39 39t-14.5 61q0 35 13.5 62.5t37.5 46t57 28.5t73 10zM261 599h-47l-133 191h65l91 -135l91 135h65z" />
    <glyph glyph-name="Tcedilla" unicode="&#x162;" horiz-adv-x="601" 
d="M321 0l-42 -59q16 9 38 9q33 0 57.5 -19.5t24.5 -54.5q0 -38 -28 -60.5t-74 -22.5q-23 0 -42 5.5t-36 13.5l2 36q35 -20 71 -20q29 0 43.5 12.5t14.5 32.5t-12.5 31t-34.5 11q-17 0 -29 -7t-20 -17l-33 18l57 91h-11v642h-245v58h556v-58h-244v-642h-13z" />
    <glyph glyph-name="tcedilla" unicode="&#x163;" horiz-adv-x="367" 
d="M295 -48q33 0 57.5 -19.5t24.5 -54.5q0 -38 -28 -60.5t-74 -22.5q-23 0 -42 5.5t-36 13.5l2 36q35 -20 71 -20q29 0 43.5 12.5t14.5 32.5t-12.5 31t-34.5 11q-17 0 -29 -7t-20 -17l-33 18l53 84q-60 9 -96.5 53.5t-36.5 121.5v288h-101v52h101v161h65v-161h153v-52h-153
v-288q0 -61 27.5 -92t75.5 -31q19 0 32 3.5t23 9.5v-54q-17 -10 -49 -13l-36 -50q16 9 38 9z" />
    <glyph glyph-name="Tcaron" unicode="&#x164;" horiz-adv-x="601" 
d="M578 642h-244v-642h-67v642h-245v58h556v-58zM322 789h-47l-133 191h65l91 -135l91 135h65z" />
    <glyph glyph-name="tcaron" unicode="&#x165;" horiz-adv-x="367" 
d="M287 47q19 0 32 3.5t23 9.5v-54q-23 -13 -61 -13q-72 0 -117 45.5t-45 131.5v288h-101v52h101v161h65v-161h153v-52h-153v-288q0 -61 27.5 -92t75.5 -31zM445 700v-80l-59 -144h-29l9 136v88h79z" />
    <glyph glyph-name="Tbar" unicode="&#x166;" horiz-adv-x="601" 
d="M486 323h-152v-323h-67v323h-151v57h151v262h-245v58h556v-58h-244v-262h152v-57z" />
    <glyph glyph-name="tbar" unicode="&#x167;" horiz-adv-x="367" 
d="M287 47q19 0 32 3.5t23 9.5v-54q-23 -13 -61 -13q-72 0 -117 45.5t-45 131.5v99h-89v52h89v137h-101v52h101v161h65v-161h153v-52h-153v-137h130v-52h-130v-99q0 -61 27.5 -92t75.5 -31z" />
    <glyph glyph-name="Umacron" unicode="&#x16a;" horiz-adv-x="684" 
d="M152 248q0 -99 49 -152.5t141 -53.5q91 0 140.5 53.5t49.5 152.5v452h66v-452q0 -122 -66.5 -192.5t-189.5 -70.5q-124 0 -190.5 70.5t-66.5 192.5v452h67v-452zM527 795h-370v57h370v-57z" />
    <glyph glyph-name="umacron" unicode="&#x16b;" horiz-adv-x="543" 
d="M410 0q-4 45 -6 95q-24 -54 -67.5 -81t-98.5 -27q-36 0 -66 11.5t-52.5 35t-35 59.5t-12.5 86v331h65v-326q0 -74 32 -109.5t86 -35.5q31 0 58 12.5t46.5 37t30.5 62.5t11 89v270h65v-309q0 -58 1.5 -108.5t5.5 -92.5h-63zM455 605h-370v57h370v-57z" />
    <glyph glyph-name="ubreve" unicode="&#x16d;" horiz-adv-x="543" 
d="M410 0q-4 45 -6 95q-24 -54 -67.5 -81t-98.5 -27q-36 0 -66 11.5t-52.5 35t-35 59.5t-12.5 86v331h65v-326q0 -74 32 -109.5t86 -35.5q31 0 58 12.5t46.5 37t30.5 62.5t11 89v270h65v-309q0 -58 1.5 -108.5t5.5 -92.5h-63zM419 729q-1 -35 -13 -62t-32 -46t-47 -28.5
t-58 -9.5q-32 0 -59 10t-47.5 28.5t-32 45.5t-12.5 62h55q3 -49 28.5 -72.5t67.5 -23.5t67 23.5t28 72.5h55z" />
    <glyph glyph-name="Uring" unicode="&#x16e;" horiz-adv-x="684" 
d="M152 248q0 -99 49 -152.5t141 -53.5q91 0 140.5 53.5t49.5 152.5v452h66v-452q0 -122 -66.5 -192.5t-189.5 -70.5q-124 0 -190.5 70.5t-66.5 192.5v452h67v-452zM344 1017q28 0 52 -9t41 -25t27 -39.5t10 -51.5q0 -29 -10 -52t-27 -39t-41 -25t-52 -9t-51.5 9t-41 25
t-27 39t-9.5 52q0 28 9.5 51.5t27 39.5t41 25t51.5 9zM345 975q-35 0 -58.5 -22.5t-23.5 -60.5t23.5 -60t58.5 -22t58.5 22t23.5 60t-23.5 60.5t-58.5 22.5z" />
    <glyph glyph-name="uring" unicode="&#x16f;" horiz-adv-x="543" 
d="M410 0q-4 45 -6 95q-24 -54 -67.5 -81t-98.5 -27q-36 0 -66 11.5t-52.5 35t-35 59.5t-12.5 86v331h65v-326q0 -74 32 -109.5t86 -35.5q31 0 58 12.5t46.5 37t30.5 62.5t11 89v270h65v-309q0 -58 1.5 -108.5t5.5 -92.5h-63zM272 827q28 0 52 -9t41 -25t27 -39.5t10 -51.5
q0 -29 -10 -52t-27 -39t-41 -25t-52 -9t-51.5 9t-41 25t-27 39t-9.5 52q0 28 9.5 51.5t27 39.5t41 25t51.5 9zM273 785q-35 0 -58.5 -22.5t-23.5 -60.5t23.5 -60t58.5 -22t58.5 22t23.5 60t-23.5 60.5t-58.5 22.5z" />
    <glyph glyph-name="Uhungarumlaut" unicode="&#x170;" horiz-adv-x="684" 
d="M152 248q0 -99 49 -152.5t141 -53.5q91 0 140.5 53.5t49.5 152.5v452h66v-452q0 -122 -66.5 -192.5t-189.5 -70.5q-124 0 -190.5 70.5t-66.5 192.5v452h67v-452zM412 956l-132 -164h-61l121 164h72zM560 956l-132 -164h-61l121 164h72z" />
    <glyph glyph-name="uhungarumlaut" unicode="&#x171;" horiz-adv-x="543" 
d="M410 0q-4 45 -6 95q-24 -54 -67.5 -81t-98.5 -27q-36 0 -66 11.5t-52.5 35t-35 59.5t-12.5 86v331h65v-326q0 -74 32 -109.5t86 -35.5q31 0 58 12.5t46.5 37t30.5 62.5t11 89v270h65v-309q0 -58 1.5 -108.5t5.5 -92.5h-63zM340 766l-132 -164h-61l121 164h72zM488 766
l-132 -164h-61l121 164h72z" />
    <glyph glyph-name="Uogonek" unicode="&#x172;" horiz-adv-x="684" 
d="M598 700v-452q0 -109 -53.5 -177.5t-153.5 -82.5q-44 -17 -70 -41t-26 -54q0 -20 13 -34.5t39 -14.5q20 0 41.5 8t42.5 22v-32q-11 -11 -35.5 -22t-55.5 -11q-41 0 -67.5 20.5t-26.5 59.5q0 19 7.5 34t20.5 26.5t28.5 20.5t32.5 15q-60 1 -106.5 20t-78.5 53t-48.5 82
t-16.5 108v452h67v-452q0 -99 49 -152.5t141 -53.5q91 0 140.5 53.5t49.5 152.5v452h66z" />
    <glyph glyph-name="uogonek" unicode="&#x173;" horiz-adv-x="543" 
d="M411 -145q20 0 41.5 8t42.5 22v-32q-11 -11 -35.5 -22t-55.5 -11q-41 0 -67.5 20.5t-26.5 59.5q0 21 9 36.5t23 27.5t31.5 21t35.5 15h1q-4 45 -6 95q-24 -54 -67.5 -81t-98.5 -27q-36 0 -66 11.5t-52.5 35t-35 59.5t-12.5 86v331h65v-326q0 -74 32 -109.5t86 -35.5
q31 0 58 12.5t46.5 37t30.5 62.5t11 89v270h65v-309q0 -58 1.5 -108.5t5.5 -92.5h-16q-45 -17 -71.5 -41.5t-26.5 -54.5q0 -20 13 -34.5t39 -14.5z" />
    <glyph glyph-name="Wcircumflex" unicode="&#x174;" horiz-adv-x="958" 
d="M931 700l-219 -701h-57l-176 585l-174 -586h-58l-220 702h74l175 -594l179 595h52l177 -594l174 593h73zM567 794l-91 135l-91 -135h-65l133 191h47l132 -191h-65z" />
    <glyph glyph-name="wcircumflex" unicode="&#x175;" horiz-adv-x="766" 
d="M738 510l-162 -511h-57l-134 413l-137 -413h-58l-161 511h71l121 -421l140 422h49l136 -421l122 420h70zM475 604l-91 135l-91 -135h-65l133 191h47l132 -191h-65z" />
    <glyph glyph-name="Ycircumflex" unicode="&#x176;" horiz-adv-x="624" 
d="M347 248v-248h-67v246l-260 454h78l216 -388l210 388h77zM402 794l-91 135l-91 -135h-65l133 191h47l132 -191h-65z" />
    <glyph glyph-name="ycircumflex" unicode="&#x177;" 
d="M474 510l-195 -545q-16 -43 -33 -75.5t-37.5 -54t-46 -32.5t-59.5 -11q-23 0 -39 3t-28 8v59q12 -7 26 -10.5t33 -3.5q45 0 74.5 26.5t48.5 84.5l10 31l-206 520h71l164 -441l147 441h70zM340 604l-91 135l-91 -135h-65l133 191h47l132 -191h-65z" />
    <glyph glyph-name="Ydieresis" unicode="&#x178;" horiz-adv-x="624" 
d="M347 248v-248h-67v246l-260 454h78l216 -388l210 388h77zM257 792h-68v101h68v-101zM444 792h-68v101h68v-101z" />
    <glyph glyph-name="Zacute" unicode="&#x179;" horiz-adv-x="600" 
d="M564 58v-58h-528v51l425 590h-412v59h504v-43l-434 -599h445zM433 956l-132 -164h-61l121 164h72z" />
    <glyph glyph-name="zacute" unicode="&#x17a;" horiz-adv-x="456" 
d="M418 53v-53h-378v43l289 414h-283v53h364v-36l-293 -421h301zM362 766l-132 -164h-61l121 164h72z" />
    <glyph glyph-name="Zdotaccent" unicode="&#x17b;" horiz-adv-x="600" 
d="M564 58v-58h-528v51l425 590h-412v59h504v-43l-434 -599h445zM342 791h-68v101h68v-101z" />
    <glyph glyph-name="zdotaccent" unicode="&#x17c;" horiz-adv-x="456" 
d="M418 53v-53h-378v43l289 414h-283v53h364v-36l-293 -421h301zM271 601h-68v101h68v-101z" />
    <glyph glyph-name="Zcaron" unicode="&#x17d;" horiz-adv-x="600" 
d="M564 58v-58h-528v51l425 590h-412v59h504v-43l-434 -599h445zM328 789h-47l-133 191h65l91 -135l91 135h65z" />
    <glyph glyph-name="zcaron" unicode="&#x17e;" horiz-adv-x="456" 
d="M418 53v-53h-378v43l289 414h-283v53h364v-36l-293 -421h301zM257 599h-47l-133 191h65l91 -135l91 135h65z" />
    <glyph glyph-name="florin" unicode="&#x192;" 
 />
    <glyph glyph-name="Scommaaccent" unicode="&#x218;" horiz-adv-x="614" 
d="M301 708q60 0 104.5 -15t74.5 -41t45 -62.5t17 -79.5h-68q0 30 -10.5 55.5t-31.5 44t-53.5 29.5t-77.5 11q-78 0 -123.5 -34t-45.5 -97q0 -35 14.5 -56t39.5 -33.5t59 -19.5t73 -13q49 -8 93.5 -18.5t79 -32t55 -57.5t20.5 -93q0 -99 -63.5 -153.5t-187.5 -54.5
q-58 0 -106.5 13.5t-83.5 41.5t-55.5 71.5t-22.5 103.5h69q1 -46 15.5 -78.5t40 -53.5t61.5 -30.5t81 -9.5q94 0 140 37.5t46 106.5q0 42 -16.5 68t-45 41t-66.5 23t-80 14q-46 7 -87 17t-71.5 28.5t-48.5 50t-18 81.5q0 93 61.5 144t172.5 51zM363 -90v-67l-50 -133h-31
l13 124v76h68z" />
    <glyph glyph-name="scommaaccent" unicode="&#x219;" horiz-adv-x="489" 
d="M241 519q87 0 134.5 -41t49.5 -110h-61q-2 44 -32.5 72t-90.5 28q-51 0 -85 -23t-34 -69q0 -22 9.5 -36t26.5 -23t41.5 -14t54.5 -9q42 -5 77 -13t60.5 -23.5t39.5 -41.5t14 -67q0 -39 -14 -69t-39 -50.5t-60.5 -31t-78.5 -10.5q-42 0 -79.5 10.5t-66 32t-46 54
t-18.5 76.5h62q1 -30 13 -53t32.5 -38t46.5 -22.5t56 -7.5q56 0 93 26t37 78q0 26 -10.5 42t-29.5 26t-46 15t-59 10q-36 4 -68 12t-56.5 23t-39 39t-14.5 61q0 35 13.5 62.5t37.5 46t57 28.5t73 10zM289 -90v-67l-50 -133h-31l13 124v76h68z" />
    <glyph glyph-name="Tcommaaccent" unicode="&#x21a;" horiz-adv-x="601" 
d="M578 642h-244v-642h-67v642h-245v58h556v-58zM331 -90v-67l-50 -133h-31l13 124v76h68z" />
    <glyph glyph-name="tcommaaccent" unicode="&#x21b;" horiz-adv-x="367" 
d="M287 47q19 0 32 3.5t23 9.5v-54q-23 -13 -61 -13q-72 0 -117 45.5t-45 131.5v288h-101v52h101v161h65v-161h153v-52h-153v-288q0 -61 27.5 -92t75.5 -31zM309 -88v-67l-50 -133h-31l13 124v76h68z" />
    <glyph glyph-name="circumflex" unicode="&#x2c6;" horiz-adv-x="352" 
d="M267 795l-91 135l-91 -135h-65l133 191h47l132 -191h-65z" />
    <glyph glyph-name="caron" unicode="&#x2c7;" horiz-adv-x="352" 
d="M200 790h-47l-133 191h65l91 -135l91 135h65z" />
    <glyph glyph-name="breve" unicode="&#x2d8;" horiz-adv-x="376" 
d="M339 920q-1 -35 -13 -62t-32 -46t-47 -28.5t-58 -9.5q-32 0 -59 10t-47.5 28.5t-32 45.5t-12.5 62h55q3 -49 28.5 -72.5t67.5 -23.5t67 23.5t28 72.5h55z" />
    <glyph glyph-name="dotaccent" unicode="&#x2d9;" horiz-adv-x="137" 
d="M103 792h-68v101h68v-101z" />
    <glyph glyph-name="ring" unicode="&#x2da;" horiz-adv-x="314" 
d="M156 1017q28 0 52 -9t41 -25t27 -39.5t10 -51.5q0 -29 -10 -52t-27 -39t-41 -25t-52 -9t-51.5 9t-41 25t-27 39t-9.5 52q0 28 9.5 51.5t27 39.5t41 25t51.5 9zM157 975q-35 0 -58.5 -22.5t-23.5 -60.5t23.5 -60t58.5 -22t58.5 22t23.5 60t-23.5 60.5t-58.5 22.5z" />
    <glyph glyph-name="ogonek" unicode="&#x2db;" horiz-adv-x="229" 
d="M166 0q-45 -17 -71.5 -41.5t-26.5 -54.5q0 -20 13 -34.5t39 -14.5q20 0 41.5 8t42.5 22v-32q-11 -11 -35.5 -22t-55.5 -11q-41 0 -67.5 20.5t-26.5 59.5q0 21 9 36.5t23 27.5t31.5 21t35.5 15h48z" />
    <glyph glyph-name="tilde" unicode="&#x2dc;" horiz-adv-x="429" 
d="M129 914q30 0 50.5 -10t42.5 -24q26 -17 42 -26.5t36 -9.5q48 0 48 61h55q2 -54 -23.5 -85.5t-76.5 -30.5q-29 0 -51.5 11t-51.5 28q-21 13 -37 22t-35 9q-23 0 -35.5 -16t-12.5 -45h-56q-2 55 26 85.5t79 30.5z" />
    <glyph glyph-name="hungarumlaut" unicode="&#x2dd;" horiz-adv-x="382" 
d="M213 957l-132 -164h-61l121 164h72zM361 957l-132 -164h-61l121 164h72z" />
    <glyph glyph-name="commaaccent" unicode="&#x326;" horiz-adv-x="210" 
d="M145 -90v-67l-50 -133h-31l13 124v76h68z" />
    <glyph glyph-name="pi" unicode="&#x3c0;" 
 />
    <glyph glyph-name="Wgrave" unicode="&#x1e80;" horiz-adv-x="958" 
d="M931 700l-219 -701h-57l-176 585l-174 -586h-58l-220 702h74l175 -594l179 595h52l177 -594l174 593h73zM553 792h-61l-132 164h72z" />
    <glyph glyph-name="wgrave" unicode="&#x1e81;" horiz-adv-x="766" 
d="M738 510l-162 -511h-57l-134 413l-137 -413h-58l-161 511h71l121 -421l140 422h49l136 -421l122 420h70zM461 602h-61l-132 164h72z" />
    <glyph glyph-name="Wacute" unicode="&#x1e82;" horiz-adv-x="958" 
d="M931 700l-219 -701h-57l-176 585l-174 -586h-58l-220 702h74l175 -594l179 595h52l177 -594l174 593h73zM602 956l-132 -164h-61l121 164h72z" />
    <glyph glyph-name="wacute" unicode="&#x1e83;" horiz-adv-x="766" 
d="M738 510l-162 -511h-57l-134 413l-137 -413h-58l-161 511h71l121 -421l140 422h49l136 -421l122 420h70zM510 766l-132 -164h-61l121 164h72z" />
    <glyph glyph-name="Wdieresis" unicode="&#x1e84;" horiz-adv-x="958" 
d="M931 700l-219 -701h-57l-176 585l-174 -586h-58l-220 702h74l175 -594l179 595h52l177 -594l174 593h73zM422 792h-68v101h68v-101zM609 792h-68v101h68v-101z" />
    <glyph glyph-name="wdieresis" unicode="&#x1e85;" horiz-adv-x="766" 
d="M738 510l-162 -511h-57l-134 413l-137 -413h-58l-161 511h71l121 -421l140 422h49l136 -421l122 420h70zM330 602h-68v101h68v-101zM517 602h-68v101h68v-101z" />
    <glyph glyph-name="Ygrave" unicode="&#x1ef2;" horiz-adv-x="624" 
d="M347 248v-248h-67v246l-260 454h78l216 -388l210 388h77zM388 792h-61l-132 164h72z" />
    <glyph glyph-name="ygrave" unicode="&#x1ef3;" 
d="M474 510l-195 -545q-16 -43 -33 -75.5t-37.5 -54t-46 -32.5t-59.5 -11q-23 0 -39 3t-28 8v59q12 -7 26 -10.5t33 -3.5q45 0 74.5 26.5t48.5 84.5l10 31l-206 520h71l164 -441l147 441h70zM326 602h-61l-132 164h72z" />
    <glyph glyph-name="endash" unicode="&#x2013;" horiz-adv-x="590" 
d="M522 253h-453v59h453v-59z" />
    <glyph glyph-name="emdash" unicode="&#x2014;" horiz-adv-x="714" 
d="M646 253h-577v59h577v-59z" />
    <glyph glyph-name="quoteleft" unicode="&#x2018;" horiz-adv-x="212" 
d="M60 476v80l59 144h29l-9 -136v-88h-79z" />
    <glyph glyph-name="quoteright" unicode="&#x2019;" horiz-adv-x="204" 
d="M154 700v-80l-59 -144h-29l9 136v88h79z" />
    <glyph glyph-name="quotesinglbase" unicode="&#x201a;" horiz-adv-x="223" 
d="M152 103v-77l-59 -155h-37l15 144v88h81z" />
    <glyph glyph-name="quotedblleft" unicode="&#x201c;" horiz-adv-x="347" 
d="M60 476v80l59 144h29l-9 -136v-88h-79zM195 476v80l59 144h29l-9 -136v-88h-79z" />
    <glyph glyph-name="quotedblright" unicode="&#x201d;" horiz-adv-x="339" 
d="M154 700v-80l-59 -144h-29l9 136v88h79zM289 700v-80l-59 -144h-29l9 136v88h79z" />
    <glyph glyph-name="quotedblbase" unicode="&#x201e;" horiz-adv-x="361" 
d="M152 103v-77l-59 -155h-37l15 144v88h81zM290 103v-77l-59 -155h-37l15 144v88h81z" />
    <glyph glyph-name="dagger" unicode="&#x2020;" horiz-adv-x="436" 
d="M407 449h-156v-621h-66v621h-156v46h156v205h66v-205h156v-46z" />
    <glyph glyph-name="daggerdbl" unicode="&#x2021;" horiz-adv-x="497" 
d="M282 449v-371h156v-46h-156v-204h-66v204h-156v46h156v371h-156v46h156v205h66v-205h156v-46h-156z" />
    <glyph glyph-name="bullet" unicode="&#x2022;" horiz-adv-x="279" 
d="M187 424v-98h-95v98h95z" />
    <glyph glyph-name="ellipsis" unicode="&#x2026;" horiz-adv-x="632" 
d="M164 99v-98h-95v98h95zM363 99v-98h-95v98h95zM563 99v-98h-95v98h95z" />
    <glyph glyph-name="perthousand" unicode="&#x2030;" horiz-adv-x="1338" 
d="M203 712q80 0 124 -48.5t44 -137.5t-44 -137.5t-124 -48.5t-124 48.5t-44 137.5t44 137.5t124 48.5zM698 700l-417 -700h-59l417 700h59zM203 669q-54 0 -84.5 -37.5t-30.5 -105.5q0 -69 30.5 -105.5t84.5 -36.5t83.5 36.5t29.5 105.5q0 68 -29.5 105.5t-83.5 37.5z
M729 359q80 0 124 -49t44 -137t-44 -137t-124 -49t-124 49t-44 137t44 137t124 49zM1136 359q80 0 124 -49t44 -137t-44 -137t-124 -49t-124 49t-44 137t44 137t124 49zM729 316q-54 0 -84.5 -37.5t-30.5 -105.5t30.5 -105.5t84.5 -37.5q53 0 83 37.5t30 105.5t-30 105.5
t-83 37.5zM1136 316q-54 0 -84.5 -37.5t-30.5 -105.5t30.5 -105.5t84.5 -37.5q53 0 83 37.5t30 105.5t-30 105.5t-83 37.5z" />
    <glyph glyph-name="guilsinglleft" unicode="&#x2039;" horiz-adv-x="338" 
d="M232 510h74l-207 -255l207 -255h-74l-203 242v27z" />
    <glyph glyph-name="guilsinglright" unicode="&#x203a;" horiz-adv-x="338" 
d="M106 510l203 -241v-27l-203 -242h-74l207 255l-207 255h74z" />
    <glyph glyph-name="fraction" unicode="&#x2044;" horiz-adv-x="175" 
d="M309 700l-386 -700h-61l387 700h60z" />
    <glyph glyph-name="Euro" unicode="&#x20ac;" horiz-adv-x="732" 
d="M437 47q85 0 127 45t47 124h64q-8 -109 -67 -168.5t-172 -59.5q-108 0 -177 62t-89 193h-126l9 51h112q-1 13 -1.5 25.5t-0.5 26.5v21t1 21h-120l9 52h116q17 137 85 204t179 67q58 0 102 -17t74.5 -48t47 -75t21.5 -97h-66q-2 38 -13.5 71t-33.5 57t-55 38t-78 14
q-81 0 -130 -52t-63 -162h288l-10 -52h-283q-1 -10 -1 -20.5v-21.5q0 -14 0.5 -27t1.5 -25h292l-10 -51h-276q17 -103 67.5 -149.5t128.5 -46.5z" />
    <glyph glyph-name="numero" unicode="&#x2116;" horiz-adv-x="1130" 
d="M885 589q45 0 80.5 -15.5t61 -43.5t39 -68t13.5 -89t-13.5 -89t-39 -68.5t-61 -44t-80.5 -15.5t-80.5 15.5t-61 44t-39 68.5t-13.5 89q0 99 51.5 157.5t142.5 58.5zM884 532q-60 0 -94 -43.5t-34 -115.5q0 -73 34 -116.5t94 -43.5q61 0 95 43.5t34 116.5q0 72 -34 115.5
t-95 43.5zM1067 57v-57h-364v57h364zM585 700v-701h-66l-375 583v-582h-67v700h65l376 -590v590h67z" />
    <glyph glyph-name="trademark" unicode="&#x2122;" horiz-adv-x="561" 
d="M224 663h-67v-178h-42v178h-67v37h176v-37zM484 485h-41v153l-58 -155h-37l-61 159v-157h-42v215h59l62 -168l61 168h57v-215z" />
    <glyph glyph-name="Omega" unicode="&#x2126;" 
 />
    <glyph glyph-name="oneeighth" unicode="&#x215b;" horiz-adv-x="738" 
d="M528 700l-386 -700h-61l387 700h60zM616 222q35 -11 55 -37t20 -71q0 -57 -36 -89t-108 -32q-73 0 -109.5 32t-36.5 89q0 45 19.5 71t55.5 37q-62 21 -62 92q0 51 35.5 81.5t96.5 30.5t96 -30.5t35 -81.5q0 -69 -61 -92zM547 389q-37 0 -58.5 -20.5t-21.5 -55.5t20 -54
t60 -19q38 0 58.5 19t20.5 54t-21.5 55.5t-57.5 20.5zM546 33q45 0 69 21.5t24 61.5q0 42 -24 62t-69 20q-93 0 -93 -82q0 -40 23.5 -61.5t69.5 -21.5zM160 701v-421h-50v350q-11 -18 -31 -28.5t-47 -12.5v38q33 4 54 23.5t25 50.5h49z" />
    <glyph glyph-name="threeeighths" unicode="&#x215c;" horiz-adv-x="856" 
d="M646 700l-386 -700h-61l387 700h60zM734 222q35 -11 55 -37t20 -71q0 -57 -36 -89t-108 -32q-73 0 -109.5 32t-36.5 89q0 45 19.5 71t55.5 37q-62 21 -62 92q0 51 35.5 81.5t96.5 30.5t96 -30.5t35 -81.5q0 -69 -61 -92zM665 389q-37 0 -58.5 -20.5t-21.5 -55.5t20 -54
t60 -19q38 0 58.5 19t20.5 54t-21.5 55.5t-57.5 20.5zM664 33q45 0 69 21.5t24 61.5q0 42 -24 62t-69 20q-93 0 -93 -82q0 -40 23.5 -61.5t69.5 -21.5zM249 505q39 -10 60.5 -36t21.5 -73q0 -58 -35 -90t-104 -32q-32 0 -59 8t-47 25t-31.5 43t-12.5 62h49q2 -51 29 -72.5
t69 -21.5q45 0 67 21.5t22 59.5q0 42 -25 61.5t-76 19.5h-46v41h46q42 0 64 16t22 51t-21 53.5t-59 18.5q-40 0 -61 -21.5t-20 -56.5h-49q2 54 33.5 87.5t98.5 33.5q62 0 97 -30.5t35 -81.5q0 -35 -17.5 -56t-50.5 -30z" />
    <glyph glyph-name="fiveeighths" unicode="&#x215d;" horiz-adv-x="885" 
d="M675 700l-386 -700h-61l387 700h60zM763 222q35 -11 55 -37t20 -71q0 -57 -36 -89t-108 -32q-73 0 -109.5 32t-36.5 89q0 45 19.5 71t55.5 37q-62 21 -62 92q0 51 35.5 81.5t96.5 30.5t96 -30.5t35 -81.5q0 -69 -61 -92zM694 389q-37 0 -58.5 -20.5t-21.5 -55.5t20 -54
t60 -19q38 0 58.5 19t20.5 54t-21.5 55.5t-57.5 20.5zM693 33q45 0 69 21.5t24 61.5q0 42 -24 62t-69 20q-93 0 -93 -82q0 -40 23.5 -61.5t69.5 -21.5zM198 564q54 0 91 -34t37 -105q0 -73 -39.5 -112.5t-105.5 -39.5q-56 0 -94.5 31t-40.5 93h48q2 -82 85 -82q95 0 95 107
q0 51 -22.5 74.5t-64.5 23.5q-35 0 -55.5 -15.5t-31.5 -47.5l-49 6l18 238h222v-42h-179l-11 -140q15 21 39.5 33t57.5 12z" />
    <glyph glyph-name="seveneighths" unicode="&#x215e;" horiz-adv-x="803" 
d="M593 700l-386 -700h-61l387 700h60zM681 222q35 -11 55 -37t20 -71q0 -57 -36 -89t-108 -32q-73 0 -109.5 32t-36.5 89q0 45 19.5 71t55.5 37q-62 21 -62 92q0 51 35.5 81.5t96.5 30.5t96 -30.5t35 -81.5q0 -69 -61 -92zM612 389q-37 0 -58.5 -20.5t-21.5 -55.5t20 -54
t60 -19q38 0 58.5 19t20.5 54t-21.5 55.5t-57.5 20.5zM611 33q45 0 69 21.5t24 61.5q0 42 -24 62t-69 20q-93 0 -93 -82q0 -40 23.5 -61.5t69.5 -21.5zM283 700v-49q-29 -20 -52.5 -57.5t-40 -87t-25 -107.5t-7.5 -119h-53q0 55 7 109.5t22 103.5t38 90.5t54 71.5h-196v45
h253z" />
    <glyph glyph-name="leftArrow" unicode="&#x2190;" horiz-adv-x="622" 
d="M273 484l-129 -105h414v-59h-413l128 -105l-32 -40l-196 168v12l196 169z" />
    <glyph glyph-name="upArrow" unicode="&#x2191;" horiz-adv-x="409" 
d="M339 399l-108 132v-467h-54v466l-107 -131l-40 32l170 197h10l169 -197z" />
    <glyph glyph-name="rightArrow" unicode="&#x2192;" horiz-adv-x="622" 
d="M577 355v-12l-196 -168l-32 40l128 105h-413v59h414l-129 105l32 40z" />
    <glyph glyph-name="downArrow" unicode="&#x2193;" horiz-adv-x="411" 
d="M211 74h-10l-170 197l40 32l107 -131v466h54v-467l108 132l40 -32z" />
    <glyph glyph-name="partialdiff" unicode="&#x2202;" 
 />
    <glyph glyph-name="Delta" unicode="&#x2206;" 
 />
    <glyph glyph-name="product" unicode="&#x220f;" 
 />
    <glyph glyph-name="summation" unicode="&#x2211;" 
 />
    <glyph glyph-name="minus" unicode="&#x2212;" horiz-adv-x="447" 
d="M375 392v-59h-302v59h302z" />
    <glyph glyph-name="radical" unicode="&#x221a;" 
 />
    <glyph glyph-name="infinity" unicode="&#x221e;" 
 />
    <glyph glyph-name="integral" unicode="&#x222b;" 
 />
    <glyph glyph-name="approxequal" unicode="&#x2248;" 
 />
    <glyph glyph-name="notequal" unicode="&#x2260;" 
 />
    <glyph glyph-name="lessequal" unicode="&#x2264;" 
 />
    <glyph glyph-name="greaterequal" unicode="&#x2265;" 
 />
    <glyph glyph-name="lozenge" unicode="&#x25ca;" horiz-adv-x="662" 
d="M634 363v-30l-267 -333h-72l-267 333v30l267 336h72zM566 347l-235 310l-235 -310l235 -305z" />
    <glyph glyph-name="circle" unicode="&#x25cb;" horiz-adv-x="627" 
d="M313 132q-54 0 -100.5 18.5t-81 52.5t-54 81t-19.5 104t19.5 104t54 80.5t81 52t100.5 18.5t100.5 -18.5t81 -52t54.5 -80.5t20 -104t-20 -104t-54.5 -81t-81 -52.5t-100.5 -18.5zM315 171q44 0 82.5 16t67.5 44.5t45.5 68.5t16.5 88t-16.5 88t-45.5 68.5t-67.5 44.5
t-82.5 16t-83 -16t-68 -44.5t-45.5 -68.5t-16.5 -88t16.5 -88t45.5 -68.5t68 -44.5t83 -16z" />
    <glyph glyph-name="a.ss01" unicode="&#xe001;" horiz-adv-x="564" 
d="M431 0q-5 48 -6 94q-25 -56 -68.5 -82t-101.5 -25q-45 0 -82.5 16.5t-64.5 49.5t-42.5 83t-15.5 117q0 66 15 115.5t42.5 83t65 50t82.5 16.5q59 1 102 -25t67 -82l3 99h60v-304q0 -59 1.5 -109.5t6.5 -96.5h-64zM268 39q33 0 61 13t49 39t32.5 66.5t11.5 95.5t-11.5 95
t-32.5 66t-49 39t-61 13q-69 0 -110.5 -53.5t-41.5 -159.5t41.5 -160t110.5 -54z" />
    <glyph glyph-name="c.sc" unicode="&#xe002;" horiz-adv-x="367" 
d="M256 171q-2 78 -69 78q-78 0 -78 -105q0 -54 21.5 -79.5t57.5 -25.5q67 0 69 75h54q-4 -63 -36.5 -92t-86.5 -29q-62 0 -98 38t-36 113q0 73 35.5 111.5t98.5 38.5q56 0 87.5 -30.5t35.5 -92.5h-55z" />
    <glyph glyph-name="r.sc" unicode="&#xe003;" horiz-adv-x="363" 
d="M196 110h-73v-110h-52v288h132q49 0 73.5 -23t24.5 -65q0 -32 -13.5 -53.5t-42.5 -30.5l65 -116h-58zM123 153h64q31 0 47 10t16 35q0 49 -63 49h-64v-94z" />
    <glyph glyph-name="zero.tf" unicode="&#xe010;" horiz-adv-x="615" 
d="M308 718q113 0 172 -90.5t59 -277.5t-59 -277.5t-172 -90.5q-115 0 -173.5 90.5t-58.5 277.5t58.5 277.5t173.5 90.5zM308 660q-80 0 -121 -73t-41 -237q0 -82 10.5 -140.5t31 -96t50.5 -55.5t70 -18q39 0 69 18t50.5 55.5t30.5 96t10 140.5q0 164 -40.5 237t-119.5 73z
" />
    <glyph glyph-name="one.tf" unicode="&#xe011;" horiz-adv-x="615" 
d="M399 700v-700h-67l-1 602q-20 -47 -63.5 -75t-97.5 -36v54q59 10 104 52t59 103h66z" />
    <glyph glyph-name="two.tf" unicode="&#xe012;" horiz-adv-x="615" 
d="M533 59v-59h-447v45q0 64 27 110.5t67.5 83t87.5 66.5t87.5 61t67.5 67.5t27 86.5q0 60 -36.5 96.5t-103.5 36.5q-80 0 -116 -46.5t-34 -118.5h-70q0 50 14 91t41.5 70t69 45t97.5 16q97 0 153 -52t56 -142q0 -59 -26 -101.5t-65 -76t-85 -62t-86.5 -59.5t-69 -68.5
t-31.5 -89.5h375z" />
    <glyph glyph-name="three.tf" unicode="&#xe013;" horiz-adv-x="615" 
d="M402 369q63 -16 97.5 -58.5t34.5 -119.5q0 -95 -56 -148.5t-164 -53.5q-51 0 -94.5 13.5t-75 41.5t-50 71.5t-19.5 104.5h70q1 -47 13 -80t33 -54t50.5 -30.5t67.5 -9.5q78 0 116 39.5t38 108.5q0 74 -43.5 107.5t-130.5 33.5h-74v57h74q74 0 112 29t38 92t-36.5 98
t-100.5 35q-74 0 -107.5 -41.5t-31.5 -107.5h-69q0 46 13 84t39.5 65t65.5 41.5t92 14.5q97 0 152.5 -49.5t55.5 -135.5q0 -63 -28 -98t-82 -50z" />
    <glyph glyph-name="four.tf" unicode="&#xe014;" horiz-adv-x="615" 
d="M550 193h-103v-193h-66v193h-321v59l325 448h62v-448h103v-59zM381 252v351l-250 -351h250z" />
    <glyph glyph-name="five.tf" unicode="&#xe015;" horiz-adv-x="615" 
d="M329 474q45 0 83.5 -14.5t66 -44.5t43.5 -74.5t16 -104.5q0 -121 -61.5 -185t-172.5 -64q-47 0 -86.5 12.5t-68.5 38.5t-46 65t-18 92h68q2 -75 41.5 -113t108.5 -38q78 0 121.5 48.5t43.5 143.5q0 91 -40.5 135.5t-111.5 44.5q-61 0 -98.5 -30.5t-54.5 -87.5l-64 8
l28 394h357v-58h-299l-16 -244q25 37 65.5 56.5t94.5 19.5z" />
    <glyph glyph-name="six.tf" unicode="&#xe016;" horiz-adv-x="615" 
d="M340 443q45 0 82.5 -14.5t64.5 -43t42 -70.5t15 -97q0 -60 -17.5 -103t-48 -71.5t-71 -42t-86.5 -13.5q-121 0 -182 89t-61 269q0 185 61.5 275t179.5 90q94 0 146.5 -54t57.5 -146h-67q-1 29 -9.5 55t-25 45t-42 30t-60.5 11q-41 0 -70 -15t-48 -41t-30 -60t-16.5 -71.5
t-7 -77t-1.5 -75.5q20 61 70.5 96t123.5 35zM323 46q67 0 109 42t42 129q0 85 -40.5 129t-103.5 44q-35 0 -64.5 -13.5t-51 -37.5t-33.5 -57.5t-12 -72.5q0 -34 9 -64t28 -52t48 -34.5t69 -12.5z" />
    <glyph glyph-name="seven.tf" unicode="&#xe017;" horiz-adv-x="615" 
d="M535 640q-56 -43 -99.5 -113t-73.5 -155.5t-45.5 -181t-14.5 -190.5h-73q0 89 14.5 181t43 177t71.5 158.5t100 125.5h-370v58h447v-60z" />
    <glyph glyph-name="eight.tf" unicode="&#xe018;" horiz-adv-x="615" 
d="M412 370q63 -20 97 -65.5t34 -120.5q0 -89 -57.5 -142t-177.5 -53t-177.5 53t-57.5 142q0 75 34 120t96 65q-109 37 -109 155q0 40 14 74.5t41 60t66.5 39.5t91.5 14q51 0 91 -14t67 -39.5t41 -60t14 -74.5q0 -60 -27.5 -98t-80.5 -56zM308 659q-72 0 -107.5 -37.5
t-35.5 -97.5t36.5 -93.5t106.5 -33.5q69 0 106 33.5t37 93.5t-36 97.5t-107 37.5zM307 41q84 0 124.5 40t40.5 108q0 70 -42 110t-123 40q-83 0 -123.5 -40t-40.5 -110q0 -68 40.5 -108t123.5 -40z" />
    <glyph glyph-name="nine.tf" unicode="&#xe019;" horiz-adv-x="615" 
d="M294 712q56 0 101.5 -22t77 -67t48.5 -113t17 -161q0 -174 -54 -267t-178 -93q-100 0 -155 55t-58 146h67q0 -29 9.5 -55t28 -46t46 -31.5t64.5 -11.5q46 0 77 20t50 60.5t26.5 102.5t7.5 147q-18 -64 -67 -97t-119 -33q-48 0 -87.5 15.5t-67 44.5t-43 72t-15.5 97
q0 62 18 106.5t49 73.5t71.5 43t85.5 14zM295 303q32 0 60.5 11.5t50 33.5t34 54t12.5 73q0 34 -10.5 66.5t-31 57.5t-49.5 40t-66 15q-32 0 -60.5 -11t-49.5 -33t-33 -55.5t-12 -78.5q0 -85 43 -129t112 -44z" />
    <glyph glyph-name="comma.tf" unicode="&#xe01a;" horiz-adv-x="265" 
d="M176 103v-77l-59 -155h-37l15 144v88h81z" />
    <glyph glyph-name="period.tf" unicode="&#xe01b;" horiz-adv-x="265" 
d="M179 99v-98h-94v98h94z" />
    <glyph glyph-name="dollar.tf" unicode="&#xe01c;" horiz-adv-x="615" 
d="M553 196q0 -94 -56 -148t-163 -59v-109h-53v111q-94 8 -153.5 61t-67.5 156h67q5 -75 45.5 -113.5t108.5 -45.5v285q-47 6 -83.5 18t-62.5 32.5t-39.5 52t-13.5 76.5q0 87 53 137t144 56v114h55v-114q47 -4 83 -20t60.5 -41t37.5 -57t15 -69h-64q-2 46 -34 83t-98 45
v-251q48 -7 88.5 -19t69.5 -34.5t45 -58t16 -88.5zM149 520q0 -28 8.5 -47.5t25 -33t41 -21.5t55.5 -14v244q-62 -6 -96 -39t-34 -89zM334 48q75 4 113 41.5t38 102.5q0 34 -10 57t-29 38.5t-47.5 24.5t-64.5 15v-279z" />
    <glyph glyph-name="zero.dnom" unicode="&#xe100;" horiz-adv-x="420" 
d="M210 431q79 0 120.5 -54.5t41.5 -166.5t-41.5 -166.5t-120.5 -54.5t-120.5 54.5t-41.5 166.5t41.5 166.5t120.5 54.5zM210 387q-53 0 -81 -41.5t-28 -135.5q0 -93 28 -133.5t81 -40.5t80.5 40.5t27.5 133.5q0 94 -27.5 135.5t-80.5 41.5z" />
    <glyph glyph-name="one.dnom" unicode="&#xe101;" horiz-adv-x="219" 
d="M160 420v-421h-50v350q-11 -18 -31 -28.5t-47 -12.5v38q33 4 54 23.5t25 50.5h49z" />
    <glyph glyph-name="two.dnom" unicode="&#xe102;" horiz-adv-x="364" 
d="M319 0h-276v33q0 38 10 65t27.5 47t40.5 34.5t49 28.5q19 10 36.5 19t30 19.5t20 25t7.5 34.5q0 35 -21.5 55.5t-57.5 20.5q-44 0 -65 -26t-20 -67h-49q2 60 36.5 98.5t98.5 38.5q58 0 93.5 -34t35.5 -90q0 -30 -10 -50.5t-26 -35.5t-37 -25.5t-42 -20.5
q-22 -11 -41 -21.5t-33 -24.5t-22.5 -33t-9.5 -45h225v-46z" />
    <glyph glyph-name="three.dnom" unicode="&#xe103;" horiz-adv-x="377" 
d="M248 224q39 -10 60.5 -36t21.5 -73q0 -58 -35 -90t-104 -32q-32 0 -59 8t-47 25t-31.5 43t-12.5 62h49q2 -51 29 -72.5t69 -21.5q45 0 67 21.5t22 59.5q0 42 -25 61.5t-76 19.5h-46v41h46q42 0 64 16t22 51t-21 53.5t-59 18.5q-40 0 -61 -21.5t-20 -56.5h-49
q2 54 33.5 87.5t98.5 33.5q62 0 97 -30.5t35 -81.5q0 -35 -17.5 -56t-50.5 -30z" />
    <glyph glyph-name="four.dnom" unicode="&#xe104;" horiz-adv-x="369" 
d="M336 108h-61v-108h-50v108h-193v45l196 267h47v-267h61v-45zM225 153v196l-141 -196h141z" />
    <glyph glyph-name="five.dnom" unicode="&#xe105;" horiz-adv-x="366" 
d="M198 283q54 0 91 -34t37 -105q0 -73 -39.5 -112.5t-105.5 -39.5q-56 0 -94.5 31t-40.5 93h48q2 -82 85 -82q95 0 95 107q0 51 -22.5 74.5t-64.5 23.5q-35 0 -55.5 -15.5t-31.5 -47.5l-49 6l18 238h222v-42h-179l-11 -140q15 21 39.5 33t57.5 12z" />
    <glyph glyph-name="six.dnom" unicode="&#xe106;" horiz-adv-x="387" 
d="M218 266q55 0 89.5 -36t34.5 -100q0 -36 -11 -61.5t-29.5 -42.5t-44 -25t-54.5 -8q-76 0 -115.5 54t-39.5 160q0 109 40.5 164.5t114.5 55.5q59 0 92.5 -32.5t37.5 -90.5h-51q-2 33 -21 56.5t-58 23.5q-101 0 -101 -177v-19q14 38 45 58t71 20zM201 36q38 0 63 22.5
t25 70.5q0 47 -23.5 71.5t-59.5 24.5q-23 0 -41 -10t-30 -27.5t-17 -41.5t0 -52q23 -58 83 -58z" />
    <glyph glyph-name="seven.dnom" unicode="&#xe107;" horiz-adv-x="311" 
d="M283 420v-49q-29 -20 -52.5 -57.5t-40 -87t-25 -107.5t-7.5 -119h-53q0 55 7 109.5t22 103.5t38 90.5t54 71.5h-196v45h253z" />
    <glyph glyph-name="eight.dnom" unicode="&#xe108;" horiz-adv-x="384" 
d="M262 222q35 -11 55 -37t20 -71q0 -57 -36 -89t-108 -32q-73 0 -109.5 32t-36.5 89q0 45 19.5 71t55.5 37q-62 21 -62 92q0 51 35.5 81.5t96.5 30.5t96 -30.5t35 -81.5q0 -69 -61 -92zM193 389q-37 0 -58.5 -20.5t-21.5 -55.5t20 -54t60 -19q38 0 58.5 19t20.5 54
t-21.5 55.5t-57.5 20.5zM192 33q45 0 69 21.5t24 61.5q0 42 -24 62t-69 20q-93 0 -93 -82q0 -40 23.5 -61.5t69.5 -21.5z" />
    <glyph glyph-name="nine.dnom" unicode="&#xe109;" horiz-adv-x="390" 
d="M187 427q76 0 115.5 -54.5t39.5 -160.5q0 -108 -39.5 -163.5t-114.5 -55.5q-61 0 -95.5 33.5t-36.5 89.5h51q1 -31 20.5 -55.5t61.5 -24.5q52 0 75.5 44.5t23.5 131.5v16q-14 -38 -45.5 -57t-72.5 -19q-57 0 -90.5 35.5t-33.5 99.5q0 36 11 62.5t30.5 44t45 25.5t54.5 8z
M182 193q23 0 42 10t31.5 28t17 42t-0.5 52q-23 59 -83 59q-38 0 -64 -24t-26 -72q0 -47 23 -71t60 -24z" />
    <glyph glyph-name="zero.numr" unicode="&#xe200;" horiz-adv-x="420" 
d="M210 712q79 0 120.5 -54.5t41.5 -166.5t-41.5 -166.5t-120.5 -54.5t-120.5 54.5t-41.5 166.5t41.5 166.5t120.5 54.5zM210 668q-53 0 -81 -41.5t-28 -135.5q0 -93 28 -133.5t81 -40.5t80.5 40.5t27.5 133.5q0 94 -27.5 135.5t-80.5 41.5z" />
    <glyph glyph-name="one.numr" unicode="&#xe201;" horiz-adv-x="219" 
d="M160 701v-421h-50v350q-11 -18 -31 -28.5t-47 -12.5v38q33 4 54 23.5t25 50.5h49z" />
    <glyph glyph-name="two.numr" unicode="&#xe202;" horiz-adv-x="364" 
d="M320 281h-276v33q0 38 10 65t27.5 47t40.5 34.5t49 28.5q19 10 36.5 19t30 19.5t20 25t7.5 34.5q0 35 -21.5 55.5t-57.5 20.5q-44 0 -65 -26t-20 -67h-49q2 60 36.5 98.5t98.5 38.5q58 0 93.5 -34t35.5 -90q0 -30 -10 -50.5t-26 -35.5t-37 -25.5t-42 -20.5
q-22 -11 -41 -21.5t-33 -24.5t-22.5 -33t-9.5 -45h225v-46z" />
    <glyph glyph-name="three.numr" unicode="&#xe203;" horiz-adv-x="377" 
d="M249 505q39 -10 60.5 -36t21.5 -73q0 -58 -35 -90t-104 -32q-32 0 -59 8t-47 25t-31.5 43t-12.5 62h49q2 -51 29 -72.5t69 -21.5q45 0 67 21.5t22 59.5q0 42 -25 61.5t-76 19.5h-46v41h46q42 0 64 16t22 51t-21 53.5t-59 18.5q-40 0 -61 -21.5t-20 -56.5h-49
q2 54 33.5 87.5t98.5 33.5q62 0 97 -30.5t35 -81.5q0 -35 -17.5 -56t-50.5 -30z" />
    <glyph glyph-name="four.numr" unicode="&#xe204;" horiz-adv-x="369" 
d="M336 389h-61v-108h-50v108h-193v45l196 267h47v-267h61v-45zM225 434v196l-141 -196h141z" />
    <glyph glyph-name="five.numr" unicode="&#xe205;" horiz-adv-x="366" 
d="M198 564q54 0 91 -34t37 -105q0 -73 -39.5 -112.5t-105.5 -39.5q-56 0 -94.5 31t-40.5 93h48q2 -82 85 -82q95 0 95 107q0 51 -22.5 74.5t-64.5 23.5q-35 0 -55.5 -15.5t-31.5 -47.5l-49 6l18 238h222v-42h-179l-11 -140q15 21 39.5 33t57.5 12z" />
    <glyph glyph-name="six.numr" unicode="&#xe206;" horiz-adv-x="387" 
d="M218 547q55 0 89.5 -36t34.5 -100q0 -36 -11 -61.5t-29.5 -42.5t-44 -25t-54.5 -8q-76 0 -115.5 54t-39.5 160q0 109 40.5 164.5t114.5 55.5q59 0 92.5 -32.5t37.5 -90.5h-51q-2 33 -21 56.5t-58 23.5q-101 0 -101 -177v-19q14 38 45 58t71 20zM201 317q38 0 63 22.5
t25 70.5q0 47 -23.5 71.5t-59.5 24.5q-23 0 -41 -10t-30 -27.5t-17 -41.5t0 -52q23 -58 83 -58z" />
    <glyph glyph-name="seven.numr" unicode="&#xe207;" horiz-adv-x="311" 
d="M283 701v-49q-29 -20 -52.5 -57.5t-40 -87t-25 -107.5t-7.5 -119h-53q0 55 7 109.5t22 103.5t38 90.5t54 71.5h-196v45h253z" />
    <glyph glyph-name="eight.numr" unicode="&#xe208;" horiz-adv-x="384" 
d="M262 503q35 -11 55 -37t20 -71q0 -57 -36 -89t-108 -32q-73 0 -109.5 32t-36.5 89q0 45 19.5 71t55.5 37q-62 21 -62 92q0 51 35.5 81.5t96.5 30.5t96 -30.5t35 -81.5q0 -69 -61 -92zM193 670q-37 0 -58.5 -20.5t-21.5 -55.5t20 -54t60 -19q38 0 58.5 19t20.5 54
t-21.5 55.5t-57.5 20.5zM192 314q45 0 69 21.5t24 61.5q0 42 -24 62t-69 20q-93 0 -93 -82q0 -40 23.5 -61.5t69.5 -21.5z" />
    <glyph glyph-name="nine.numr" unicode="&#xe209;" horiz-adv-x="390" 
d="M187 708q76 0 115.5 -54.5t39.5 -160.5q0 -108 -39.5 -163.5t-114.5 -55.5q-61 0 -95.5 33.5t-36.5 89.5h51q1 -31 20.5 -55.5t61.5 -24.5q52 0 75.5 44.5t23.5 131.5v16q-14 -38 -45.5 -57t-72.5 -19q-57 0 -90.5 35.5t-33.5 99.5q0 36 11 62.5t30.5 44t45 25.5t54.5 8z
M182 474q23 0 42 10t31.5 28t17 42t-0.5 52q-23 59 -83 59q-38 0 -64 -24t-26 -72q0 -47 23 -71t60 -24z" />
    <glyph glyph-name="idotaccent" unicode="&#xe300;" horiz-adv-x="220" 
d="M142 0h-63v510h63v-510zM146 601h-68v101h68v-101z" />
    </font>
</defs>
</svg>
